# This file uses centimeters as units for non-parametric coordinates.

mtllib MainFrame.mtl
g default
v -2.608979 -0.009030 0.500000
v 2.608979 -0.009030 0.500000
v -2.608979 1.302238 0.500000
v 2.608979 1.302238 0.500000
v -2.608979 -0.009030 -0.616172
v 2.608979 -0.009030 -0.616172
v 3.879181 -0.009030 0.414898
v 2.879181 -0.009030 0.994674
v 2.879181 1.302238 0.994674
v -3.879181 -0.009030 0.414898
v -2.879181 -0.009030 0.994674
v -2.879181 1.302238 0.994674
v -2.608979 1.456177 -0.370112
v 2.608979 1.456177 -0.370112
v -2.608979 1.370156 0.326904
v 2.608979 1.370156 0.326904
v -1.731518 1.370156 0.326904
v -1.731518 1.456177 -0.370112
v 1.731518 1.370156 0.326904
v 1.731518 1.456177 -0.370112
v 0.577172 1.370156 0.326904
v 0.577172 1.456177 -0.370112
v -0.577173 1.370156 0.326904
v -0.577173 1.456177 -0.370112
v 1.855825 1.443991 -0.271368
v 1.855825 1.382342 0.228160
v 2.484672 1.382342 0.228160
v 2.484672 1.443991 -0.271368
v -1.855825 1.382342 0.228160
v -2.484672 1.382342 0.228160
v -1.855825 1.443991 -0.271368
v -2.484672 1.443991 -0.271368
v -1.567986 1.443991 -0.271368
v -1.567986 1.382342 0.228160
v -0.740705 1.382342 0.228160
v -0.740705 1.443991 -0.271368
v 0.740704 1.382342 0.228160
v 0.740704 1.443991 -0.271368
v 1.567986 1.382342 0.228160
v 1.567986 1.443991 -0.271368
v -0.413641 1.382342 0.228160
v -0.413641 1.443991 -0.271368
v 0.413640 1.382342 0.228160
v 0.413640 1.443991 -0.271368
v 1.855825 1.487748 -0.265968
v 1.855825 1.426100 0.233561
v 2.484672 1.426100 0.233561
v 2.484672 1.487748 -0.265968
v -1.855825 1.426100 0.233561
v -2.484672 1.426100 0.233561
v -1.855825 1.487748 -0.265968
v -2.484672 1.487748 -0.265968
v -1.567986 1.487748 -0.265968
v -1.567986 1.426100 0.233561
v -0.740705 1.426100 0.233561
v -0.740705 1.487748 -0.265968
v 0.740704 1.426100 0.233561
v 0.740704 1.487748 -0.265968
v 1.567986 1.426100 0.233561
v 1.567986 1.487748 -0.265968
v -0.413641 1.426100 0.233561
v -0.413641 1.487748 -0.265968
v 0.413640 1.426100 0.233561
v 0.413640 1.487748 -0.265968
v 2.608979 1.486075 -0.445526
v 2.608979 1.523830 -0.540759
v -2.608979 1.486075 -0.445526
v -2.608979 1.523830 -0.540759
v 2.608979 2.573266 -0.455509
v 2.608979 2.611020 -0.550742
v -2.608979 2.573266 -0.455509
v -2.608979 2.611020 -0.550742
v -2.608979 1.492891 -0.616172
v -2.593382 1.531307 -0.559618
v 2.608979 1.492891 -0.616172
v 2.593381 1.531307 -0.559618
v 3.879181 1.498426 0.414898
v 3.829326 1.541190 0.443803
v -3.879181 1.498426 0.414898
v -3.829326 1.541190 0.443803
v 3.830362 1.491112 2.962589
v 3.879181 1.499606 2.915528
v 3.826693 1.540528 2.915528
v 3.831668 -0.009030 2.962589
v 3.879181 -0.009030 2.915076
v 2.926694 1.265195 2.962589
v 2.879181 1.302238 2.915076
v 2.879181 -0.009030 2.915076
v 2.926694 -0.009030 2.962589
v -2.926694 -0.009030 2.962589
v -2.879181 -0.009030 2.915076
v -2.926694 1.265195 2.962589
v -2.879181 1.302238 2.915076
v -3.826693 1.540528 2.915528
v -3.879181 1.500126 2.915980
v -3.830362 1.491112 2.962589
v -3.879181 -0.009030 2.915076
v -3.831668 -0.009030 2.962589
vt 0.375000 0.000000
vt 0.625000 0.000000
vt 0.375000 0.250000
vt 0.625000 0.750000
vt 0.375000 1.000000
vt 0.625000 1.000000
vt 0.125000 0.000000
vt 0.375000 0.416667
vt 0.625000 0.416667
vt 0.375000 0.333333
vt 0.625000 0.333333
vt 0.458333 0.333333
vt 0.458333 0.416667
vt 0.541667 0.333333
vt 0.541667 0.416667
vt 0.513889 0.333333
vt 0.513889 0.416667
vt 0.486111 0.333333
vt 0.486111 0.416667
vt 0.541667 0.416667
vt 0.541667 0.333333
vt 0.625000 0.333333
vt 0.625000 0.416667
vt 0.375000 0.333333
vt 0.458333 0.333333
vt 0.458333 0.416667
vt 0.375000 0.416667
vt 0.458333 0.416667
vt 0.458333 0.333333
vt 0.486111 0.333333
vt 0.486111 0.416667
vt 0.513889 0.416667
vt 0.513889 0.333333
vt 0.541667 0.333333
vt 0.541667 0.416667
vt 0.486111 0.416667
vt 0.486111 0.333333
vt 0.513889 0.333333
vt 0.513889 0.416667
vt 0.541667 0.416667
vt 0.541667 0.333333
vt 0.625000 0.333333
vt 0.625000 0.416667
vt 0.375000 0.333333
vt 0.458333 0.333333
vt 0.458333 0.416667
vt 0.375000 0.416667
vt 0.486111 0.333333
vt 0.486111 0.416667
vt 0.513889 0.416667
vt 0.513889 0.333333
vt 0.625000 0.416667
vt 0.375000 0.416667
vt 0.625000 0.416667
vt 0.625000 0.500000
vt 0.375000 0.416667
vt 0.375000 0.500000
vt 0.375000 0.000000
vt 0.375000 0.509732
vt 0.145835 0.250000
vt 0.875000 0.240268
vt 0.875000 0.246413
vt 0.861878 0.250000
vt 0.862795 0.241947
vt 0.875000 0.000000
vt 0.636878 0.000000
vt 0.375000 0.000000
vt 0.138122 0.250000
vt 0.125000 0.241425
vt 0.136878 0.000000
vt 0.636878 0.242163
vt 0.863122 0.000000
vt 0.363122 0.000000
vt 0.363122 0.242162
vt 0.137205 0.241947
vt 0.875000 0.000000
vt 0.875000 0.241153
vt 0.708333 0.250000
vt 0.625000 0.250000
vt 0.854166 0.250000
vt 0.791667 0.250000
vt 0.291667 0.250000
vt 0.208333 0.250000
vt 0.137464 0.250000
vt 0.125000 0.240268
vt 0.125000 0.000000
vt 0.875000 0.000000
vt 0.875000 0.241342
vt 0.625000 0.250000
vt 0.862536 0.250000
vt 0.625000 0.000000
vt 0.625000 0.000000
vt 0.625000 0.250000
vt 0.375000 0.250000
vt 0.375000 0.250000
vt 0.125000 0.241153
vt 0.125000 0.000000
vt 0.375000 0.750000
vt 0.625000 0.509732
vt 0.625000 0.416667
vt 0.624253 0.500000
vt 0.625000 0.444444
vt 0.625000 0.500000
vt 0.375747 0.500000
vt 0.375000 0.500000
vn 0.000000 -1.000000 0.000000
vn 0.000000 -1.000000 0.000000
vn 0.000000 -1.000000 0.000000
vn 0.000000 -1.000000 0.000000
vn -0.877612 0.000000 0.479372
vn -0.877612 0.000000 0.479372
vn -0.993799 0.000000 0.111188
vn -0.993799 0.000000 0.111188
vn 0.000000 -1.000000 0.000000
vn 0.000000 -1.000000 0.000000
vn 0.000000 -1.000000 0.000000
vn 0.000000 -1.000000 0.000000
vn 0.877612 0.000000 0.479372
vn 0.877612 0.000000 0.479372
vn 0.993799 0.000000 0.111188
vn 0.993799 0.000000 0.111188
vn 0.000000 -1.000000 0.000000
vn 0.000000 -1.000000 0.000000
vn 0.000000 -1.000000 0.000000
vn 0.000000 -1.000000 0.000000
vn 0.000000 0.992470 0.122484
vn 0.000000 0.992470 0.122484
vn 0.000000 0.992470 0.122484
vn 0.000000 0.992470 0.122484
vn 0.000000 0.992470 0.122485
vn 0.000000 0.992470 0.122485
vn 0.000000 0.992470 0.122485
vn 0.000000 0.992470 0.122485
vn 0.000000 0.939053 0.343771
vn 0.000000 0.938180 0.346148
vn 0.118910 0.963496 0.239868
vn 0.120555 0.962132 0.244476
vn -0.120555 0.962132 0.244476
vn -0.118910 0.963496 0.239868
vn 0.000000 0.938179 0.346151
vn -0.000000 0.939053 0.343771
vn 0.000000 0.000000 1.000000
vn 0.000000 0.000000 1.000000
vn 0.000000 0.000000 1.000000
vn 0.000000 0.000000 1.000000
vn 0.000000 0.929611 0.368543
vn 0.000000 0.929611 0.368543
vn 0.000000 0.929611 0.368543
vn 0.000000 0.929611 0.368543
vn 0.000000 0.992470 0.122485
vn 0.000000 0.992470 0.122485
vn 0.000000 0.992470 0.122485
vn 0.000000 0.992470 0.122485
vn 0.000000 0.992470 0.122484
vn 0.000000 0.992470 0.122484
vn 0.000000 0.992470 0.122484
vn 0.000000 0.992470 0.122484
vn 0.000000 0.992470 0.122485
vn 0.000000 0.992470 0.122485
vn 0.000000 0.992470 0.122485
vn 0.000000 0.992470 0.122485
vn 0.000000 0.944612 0.328189
vn -0.000001 0.992470 0.122485
vn -0.000001 0.992470 0.122484
vn 0.000001 0.992470 0.122485
vn -0.146181 0.966688 0.210109
vn 0.000001 0.992470 0.122484
vn 0.000000 0.992470 0.122484
vn 0.000000 0.992470 0.122484
vn 0.000000 0.944614 0.328184
vn 0.000000 0.992470 0.122484
vn 0.146181 0.966688 0.210109
vn 0.000000 0.992470 0.122484
vn 0.000000 0.992470 0.122484
vn 0.000000 0.992470 0.122484
vn 0.000000 0.992470 0.122484
vn 0.000000 0.946170 0.323669
vn 0.000000 0.992470 0.122484
vn -0.000000 0.946170 0.323669
vn -0.000000 0.992470 0.122485
vn -0.000000 0.992470 0.122484
vn 0.000000 0.992470 0.122485
vn 0.000000 0.992470 0.122484
vn 0.000000 0.992470 0.122485
vn 0.000000 0.992470 0.122484
vn 0.000000 0.992470 0.122485
vn 0.000000 0.992470 0.122484
vn -1.000000 -0.000002 0.000000
vn -1.000000 -0.000002 0.000000
vn -1.000000 -0.000002 0.000000
vn -1.000000 -0.000002 0.000000
vn 0.000000 -0.122484 0.992471
vn 0.000000 -0.122484 0.992471
vn 0.000000 -0.122484 0.992471
vn 0.000000 -0.122484 0.992471
vn 1.000000 0.000001 0.000000
vn 1.000000 0.000001 0.000000
vn 1.000000 0.000001 0.000000
vn 1.000000 0.000001 0.000000
vn 0.000000 0.122484 -0.992470
vn 0.000000 0.122484 -0.992470
vn 0.000000 0.122484 -0.992470
vn 0.000000 0.122484 -0.992470
vn 0.000000 -0.122485 0.992470
vn 0.000000 -0.122485 0.992470
vn 0.000000 -0.122485 0.992470
vn 0.000000 -0.122485 0.992470
vn 1.000000 -0.000002 0.000000
vn 1.000000 -0.000002 0.000000
vn 1.000000 -0.000002 0.000000
vn 1.000000 -0.000002 0.000000
vn 0.000000 0.122484 -0.992470
vn 0.000000 0.122484 -0.992470
vn 0.000000 0.122484 -0.992470
vn 0.000000 0.122484 -0.992470
vn -1.000000 -0.000001 0.000000
vn -1.000000 -0.000001 0.000000
vn -1.000000 -0.000001 0.000000
vn -1.000000 -0.000001 0.000000
vn -1.000000 0.000000 0.000000
vn -1.000000 0.000000 0.000000
vn -1.000000 0.000000 0.000000
vn -1.000000 0.000000 0.000000
vn 0.000000 -0.122485 0.992470
vn 0.000000 -0.122485 0.992470
vn 0.000000 -0.122485 0.992470
vn 0.000000 -0.122485 0.992470
vn 1.000000 0.000000 0.000000
vn 1.000000 0.000000 0.000000
vn 1.000000 0.000000 0.000000
vn 1.000000 0.000000 0.000000
vn 0.000000 0.122485 -0.992470
vn 0.000000 0.122485 -0.992470
vn 0.000000 0.122485 -0.992470
vn 0.000000 0.122485 -0.992470
vn -1.000000 -0.000000 0.000000
vn -1.000000 -0.000000 0.000000
vn -1.000000 -0.000000 0.000000
vn -1.000000 -0.000000 0.000000
vn 0.000000 -0.122484 0.992471
vn 0.000000 -0.122484 0.992471
vn 0.000000 -0.122484 0.992471
vn 0.000000 -0.122484 0.992471
vn 1.000000 0.000001 0.000000
vn 1.000000 0.000001 0.000000
vn 1.000000 0.000001 0.000000
vn 1.000000 0.000001 0.000000
vn 0.000000 0.122485 -0.992470
vn 0.000000 0.122485 -0.992470
vn 0.000000 0.122485 -0.992470
vn 0.000000 0.122485 -0.992470
vn -1.000000 -0.000000 0.000000
vn -1.000000 -0.000000 0.000000
vn -1.000000 -0.000000 0.000000
vn -1.000000 -0.000000 0.000000
vn 0.000000 -0.122485 0.992470
vn 0.000000 -0.122485 0.992470
vn 0.000000 -0.122485 0.992470
vn 0.000000 -0.122485 0.992470
vn 1.000000 -0.000000 0.000000
vn 1.000000 -0.000000 0.000000
vn 1.000000 -0.000000 0.000000
vn 1.000000 -0.000000 0.000000
vn 0.000000 0.122485 -0.992470
vn 0.000000 0.122485 -0.992470
vn 0.000000 0.122485 -0.992470
vn 0.000000 0.122485 -0.992470
vn 0.000000 0.929610 0.368544
vn 0.000000 0.929610 0.368544
vn 1.000000 0.000000 0.000000
vn 1.000000 0.000000 0.000000
vn 1.000000 0.000000 0.000000
vn 1.000000 0.000000 0.000000
vn -0.000000 -0.009182 -0.999958
vn -0.000000 -0.009182 -0.999958
vn -0.000000 -0.009182 -0.999958
vn -0.000000 -0.009182 -0.999958
vn 0.000000 0.009182 0.999958
vn 0.000000 0.009182 0.999958
vn 0.000000 0.009182 0.999958
vn 0.000000 0.009182 0.999958
vn -1.000000 -0.000000 0.000000
vn -1.000000 -0.000000 0.000000
vn -1.000000 -0.000000 0.000000
vn -1.000000 -0.000000 0.000000
vn 0.000000 -1.000000 0.000000
vn 0.000000 -1.000000 0.000000
vn 0.000000 -1.000000 0.000000
vn 0.000000 -1.000000 0.000000
vn -0.035247 0.829829 -0.556904
vn -0.127266 0.831675 -0.540481
vn 0.127265 0.831676 -0.540479
vn 0.035248 0.829829 -0.556903
vn -0.376586 0.798336 -0.469940
vn -0.376586 0.798336 -0.469940
vn 0.376582 0.798340 -0.469936
vn 0.376582 0.798339 -0.469936
vn 0.633057 0.774105 0.000254
vn 0.633057 0.774105 0.000254
vn 0.633057 0.774105 0.000254
vn 0.633057 0.774105 0.000254
vn -0.630682 0.776042 0.000172
vn -0.630682 0.776042 0.000172
vn -0.630682 0.776042 0.000172
vn -0.630682 0.776041 0.000172
vn -0.170576 0.679533 0.713539
vn -0.170576 0.679533 0.713539
vn -0.170576 0.679533 0.713539
vn -0.170576 0.679533 0.713539
vn 0.700558 0.000197 0.713595
vn 0.700558 0.000197 0.713595
vn 0.700558 0.000197 0.713595
vn 0.700558 0.000197 0.713595
vn -0.707105 0.000000 0.707108
vn -0.707105 0.000000 0.707108
vn -0.707105 0.000000 0.707108
vn -0.707105 0.000000 0.707108
vn 0.707105 0.000000 0.707108
vn 0.707105 0.000000 0.707108
vn 0.707105 0.000000 0.707108
vn 0.707105 0.000000 0.707108
vn 0.170576 0.679533 0.713539
vn 0.170576 0.679533 0.713539
vn 0.170576 0.679533 0.713539
vn 0.170576 0.679533 0.713539
vn -0.698850 0.000088 0.715268
vn -0.698850 0.000088 0.715268
vn -0.698850 0.000088 0.715268
vn -0.698850 0.000088 0.715268
vn 0.000000 0.000000 1.000000
vn 0.000000 0.000000 1.000000
vn 0.000000 0.000000 1.000000
vn 0.000000 0.000000 1.000000
vn 0.000000 0.000000 1.000000
vn 0.000000 0.000000 1.000000
vn 0.000000 0.000000 1.000000
vn 0.000000 0.000000 1.000000
vn 0.630236 0.000000 -0.776404
vn 0.630236 0.000000 -0.776404
vn 0.630236 0.000000 -0.776404
vn 0.630236 0.000000 -0.776404
vn -0.239588 0.970779 0.013630
vn -0.200889 0.970994 0.129665
vn -0.184447 0.966979 0.175872
vn 0.239589 0.970779 0.013630
vn 0.184447 0.966979 0.175872
vn 0.200889 0.970995 0.129665
vn -0.630236 0.000000 -0.776404
vn -0.630236 0.000000 -0.776404
vn -0.630236 0.000000 -0.776404
vn -0.630236 0.000000 -0.776404
vn 1.000000 0.000000 0.000000
vn 1.000000 0.000000 0.000000
vn 1.000000 0.000000 0.000000
vn 1.000000 0.000000 0.000000
vn -0.243895 0.969802 0.000000
vn -0.243895 0.969802 0.000000
vn -1.000000 0.000000 0.000000
vn -1.000000 0.000000 0.000000
vn 1.000000 0.000000 0.000000
vn 1.000000 0.000000 0.000000
vn 0.243895 0.969802 0.000000
vn 0.243895 0.969802 0.000000
vn -1.000000 0.000000 0.000000
vn -1.000000 0.000000 0.000000
vn -1.000000 0.000000 0.000000
vn -1.000000 0.000000 0.000000
vn 0.000000 0.000000 -1.000000
vn 0.000000 0.000000 -1.000000
vn 0.000000 0.000000 -1.000000
vn 0.000000 0.000000 -1.000000
vn -0.000003 -0.929609 -0.368546
vn -0.000003 -0.929609 -0.368546
vn -0.000003 -0.929609 -0.368546
vn -0.000003 -0.929609 -0.368546
vn 0.000000 0.929609 0.368546
vn 0.000000 0.929609 0.368546
vn 0.000000 0.929609 0.368546
vn 0.000000 0.929609 0.368546
vn 0.000002 -0.929611 -0.368543
vn 0.000002 -0.929611 -0.368543
vn 0.000002 -0.929611 -0.368543
vn 0.000002 -0.929611 -0.368543
vn 0.484775 0.621792 0.615117
vn 0.484775 0.621792 0.615117
vn 0.484775 0.621792 0.615117
vn -0.475684 0.624880 0.619071
vn -0.475684 0.624880 0.619071
vn -0.475684 0.624880 0.619071
s 1
g pCube1
usemtl initialShadingGroup
f 8/91/1 2/2/2 6/76/3 7/87/4
s 2
f 4/79/5 2/2/6 8/91/7 9/89/8
s 1
f 1/1/9 11/58/10 10/86/11 5/7/12
s 4
f 1/1/13 3/3/14 12/94/15 11/58/16
s 1
f 11/58/10 91/67/17 90/73/18 98/70/19 97/97/20 10/86/11
s off
f 45/40/21 46/41/22 47/42/23 48/43/24
f 50/44/25 49/45/26 51/46/27 52/47/28
s 5
f 23/18/29 17/12/30 15/10/31 3/3/32 4/79/33 16/11/34 19/14/35 21/16/36
s off
f 4/79/37 3/3/38 1/1/39 2/2/40
s 1
f 6/4/3 2/6/2 1/5/9 5/98/12
s off
f 70/55/41 72/57/42 71/56/43 69/54/44
f 53/46/45 54/45/46 55/48/47 56/49/48
f 58/50/49 57/51/50 59/41/51 60/40/52
f 62/49/53 61/48/54 63/51/55 64/50/56
s 5
f 20/15/57 19/14/35 26/21/58 25/20/59
f 19/14/35 16/11/34 27/22/60 26/21/58
f 16/11/34 14/100/61 28/23/62 27/22/60
f 14/100/61 20/15/57 25/20/59 28/23/62
f 15/10/31 17/12/30 29/25/63 30/24/64
f 17/12/30 18/13/65 31/26/66 29/25/63
f 18/13/65 13/8/67 32/27/68 31/26/66
f 13/8/67 15/10/31 30/24/64 32/27/68
f 18/13/65 17/12/30 34/29/69 33/28/70
f 17/12/30 23/18/29 35/30/71 34/29/69
f 23/18/29 24/19/72 36/31/73 35/30/71
f 24/19/72 18/13/65 33/28/70 36/31/73
f 22/17/74 21/16/36 37/33/75 38/32/76
f 21/16/36 19/14/35 39/34/77 37/33/75
f 19/14/35 20/15/57 40/35/78 39/34/77
f 20/15/57 22/17/74 38/32/76 40/35/78
f 24/19/72 23/18/29 41/37/79 42/36/80
f 23/18/29 21/16/36 43/38/81 41/37/79
f 21/16/36 22/17/74 44/39/82 43/38/81
f 22/17/74 24/19/72 42/36/80 44/39/82
s off
f 25/15/83 26/14/84 46/41/85 45/40/86
f 26/14/87 27/11/88 47/42/89 46/41/90
f 27/11/91 28/9/92 48/43/93 47/42/94
f 28/9/95 25/15/96 45/40/97 48/43/98
f 30/10/99 29/12/100 49/45/101 50/44/102
f 29/12/103 31/13/104 51/46/105 49/45/106
f 31/13/107 32/8/108 52/47/109 51/46/110
f 32/8/111 30/10/112 50/44/113 52/47/114
f 33/13/115 34/12/116 54/45/117 53/46/118
f 34/12/119 35/37/120 55/48/121 54/45/122
f 35/37/123 36/36/124 56/49/125 55/48/126
f 36/36/127 33/13/128 53/46/129 56/49/130
f 38/39/131 37/38/132 57/51/133 58/50/134
f 37/38/135 39/14/136 59/41/137 57/51/138
f 39/14/139 40/15/140 60/40/141 59/41/142
f 40/15/143 38/39/144 58/50/145 60/40/146
f 42/36/147 41/37/148 61/48/149 62/49/150
f 41/37/151 43/38/152 63/51/153 61/48/154
f 43/38/155 44/39/156 64/50/157 63/51/158
f 44/39/159 42/36/160 62/49/161 64/50/162
s 5
f 65/52/163 67/53/164 13/8/67 18/13/65 24/19/72 22/17/74 20/15/57 14/100/61
s off
f 65/52/165 66/103/166 70/55/167 69/54/168
f 70/55/169 66/103/170 68/105/171 72/57/172
f 69/54/173 71/56/174 67/53/175 65/52/176
f 68/105/177 67/53/178 71/56/179 72/57/180
s 1
f 89/66/181 88/92/182 8/91/1 7/87/4 85/65/183 84/72/184
s 8
f 73/59/185 74/104/186 76/101/187 75/99/188
f 74/60/186 73/85/185 79/96/189 80/84/190
f 75/61/188 76/62/187 78/90/191 77/77/192
s off
f 77/77/193 78/90/194 83/63/195 82/88/196
f 80/84/197 79/96/198 95/69/199 94/68/200
f 81/64/201 83/63/202 87/93/203 86/71/204
f 82/88/205 81/64/206 84/72/207 85/65/208
f 86/71/209 87/93/210 88/92/211 89/66/212
f 90/73/213 91/67/214 93/95/215 92/74/216
f 92/74/217 93/95/218 94/68/219 96/75/220
f 96/75/221 95/69/222 97/97/223 98/70/224
f 81/64/225 86/71/226 89/66/227 84/72/228
f 90/73/229 92/74/230 96/75/231 98/70/232
f 6/76/233 75/61/234 77/77/235 7/87/236
s 5
f 16/78/34 4/79/33 9/89/237 78/90/238 76/80/239 14/81/61
f 12/94/240 3/3/32 15/82/31 13/83/67 74/60/241 80/84/242
s off
f 73/85/243 5/7/244 10/86/245 79/96/246
f 7/87/247 77/77/248 82/88/249 85/65/250
s 5
f 9/89/237 87/93/251 83/63/252 78/90/238
s 2
f 9/89/8 8/91/7 88/92/253 87/93/254
s 4
f 11/58/16 12/94/15 93/95/255 91/67/256
s 5
f 93/95/257 12/94/240 80/84/242 94/68/258
s off
f 79/96/259 10/86/260 97/97/261 95/69/262
f 5/98/263 73/59/264 75/99/265 6/4/266
f 14/100/267 76/101/268 66/102/269 65/52/270
f 66/103/271 76/101/272 74/104/273 68/105/274
f 74/104/275 13/8/276 67/53/277 68/105/278
f 81/64/279 82/88/280 83/63/281
f 94/68/282 95/69/283 96/75/284
