# This file uses centimeters as units for non-parametric coordinates.

mtllib Wall for door.mtl
g default
v -5.332646 0.008945 0.429157
v 5.332646 0.008945 0.429157
v -5.332646 3.482688 0.429157
v 5.332646 3.482688 0.429157
v -5.332646 3.482688 0.148551
v 5.332646 3.482688 0.148551
v -5.332646 0.008945 0.148551
v 5.332646 0.008945 0.148551
v 1.624961 3.482688 0.148551
v 1.229744 0.008945 0.148551
v 1.229744 0.008945 0.429157
v 1.624961 3.482688 0.429157
v -1.589263 3.482688 0.148551
v -1.210575 0.008945 0.148551
v -1.210575 0.008945 0.429157
v -1.589263 3.482688 0.429157
v -1.114631 2.105139 0.148551
v -5.332646 2.591089 0.148551
v -5.332646 2.591089 0.429157
v -1.114631 2.105139 0.429157
v 1.073157 2.113581 0.429157
v 5.332646 2.591089 0.429157
v 5.332646 2.591089 0.148551
v 1.073157 2.113581 0.148551
v -0.004681 2.528482 0.148551
v -0.004681 3.482688 0.148551
v -0.004681 3.482688 0.429157
v -0.004681 2.528482 0.429157
v 1.587086 1.116336 0.148551
v -1.589263 1.116336 0.148551
v -5.332646 1.116336 0.148551
v -5.332646 1.116336 0.429157
v -1.589263 1.116336 0.429157
v 1.587086 1.116336 0.429157
v 5.332646 1.116336 0.429157
v 5.332646 1.116336 0.148551
vt 0.375000 0.000000
vt 0.625000 0.000000
vt 0.375000 0.250000
vt 0.625000 0.250000
vt 0.375000 0.500000
vt 0.625000 0.500000
vt 0.375000 0.750000
vt 0.625000 0.750000
vt 0.375000 1.000000
vt 0.625000 1.000000
vt 0.875000 0.000000
vt 0.875000 0.250000
vt 0.125000 0.000000
vt 0.125000 0.250000
vt 0.538090 0.500000
vt 0.538090 0.750000
vt 0.538090 0.500000
vt 0.538090 0.250000
vt 0.462747 0.500000
vt 0.462747 0.750000
vt 0.462747 0.500000
vt 0.462747 0.250000
vt 0.462747 0.571248
vt 0.125000 0.178752
vt 0.375000 0.571248
vt 0.375000 0.178752
vt 0.462747 0.178752
vt 0.538090 0.178752
vt 0.625000 0.178752
vt 0.625000 0.571248
vt 0.875000 0.178752
vt 0.538090 0.571248
vt 0.499890 0.571248
vt 0.499890 0.500000
vt 0.499890 0.250000
vt 0.499890 0.178752
vt 0.538090 0.673339
vt 0.462747 0.673339
vt 0.125000 0.076661
vt 0.375000 0.673339
vt 0.375000 0.076661
vt 0.462747 0.076661
vt 0.538090 0.076661
vt 0.625000 0.076661
vt 0.625000 0.673339
vt 0.875000 0.076661
vn 0.000000 0.000000 1.000000
vn 0.000000 0.000000 1.000000
vn 0.000000 0.000000 1.000000
vn 0.000000 0.000000 1.000000
vn 0.000000 1.000000 0.000000
vn 0.000000 1.000000 0.000000
vn 0.000000 1.000000 0.000000
vn 0.000000 1.000000 0.000000
vn 0.000000 0.000000 -1.000000
vn 0.000000 0.000000 -1.000000
vn 0.000000 0.000000 -1.000000
vn 0.000000 0.000000 -1.000000
vn 0.000000 -1.000000 0.000000
vn 0.000000 -1.000000 0.000000
vn 0.000000 -1.000000 0.000000
vn 0.000000 -1.000000 0.000000
vn 1.000000 0.000000 0.000000
vn 1.000000 0.000000 0.000000
vn 1.000000 0.000000 0.000000
vn 1.000000 0.000000 0.000000
vn -1.000000 0.000000 0.000000
vn -1.000000 0.000000 0.000000
vn -1.000000 0.000000 0.000000
vn -1.000000 0.000000 0.000000
vn 0.000000 0.000000 -1.000000
vn 0.000000 0.000000 -1.000000
vn 0.000000 0.000000 -1.000000
vn -0.000000 0.000000 -1.000000
vn 0.000000 -1.000000 0.000000
vn 0.000000 -1.000000 0.000000
vn 0.000000 -1.000000 0.000000
vn 0.000000 -1.000000 0.000000
vn 0.000000 0.000000 1.000000
vn 0.000000 0.000000 1.000000
vn 0.000000 0.000000 1.000000
vn 0.000000 0.000000 1.000000
vn 0.000000 1.000000 0.000000
vn 0.000000 1.000000 0.000000
vn 0.000000 1.000000 0.000000
vn 0.000000 1.000000 0.000000
vn 0.000000 0.000000 -1.000000
vn 0.000000 0.000000 -1.000000
vn 0.000000 0.000000 1.000000
vn 0.000000 0.000000 1.000000
vn 0.000000 1.000000 0.000000
vn 0.000000 1.000000 0.000000
vn 0.000000 0.000000 -1.000000
vn 0.000000 0.000000 -1.000000
vn -1.000000 0.000000 0.000000
vn -1.000000 0.000000 0.000000
vn 0.000000 0.000000 1.000000
vn 0.000000 0.000000 1.000000
vn 0.000000 0.000000 1.000000
vn 0.000000 0.000000 1.000000
vn 1.000000 0.000000 0.000000
vn 1.000000 0.000000 0.000000
vn -0.000000 0.000000 -1.000000
vn -0.000000 0.000000 -1.000000
vn 0.000000 0.000000 -1.000000
vn 0.000000 0.000000 -1.000000
vn -1.000000 0.000000 0.000000
vn -1.000000 0.000000 0.000000
vn 0.000000 0.000000 1.000000
vn 0.000000 0.000000 1.000000
vn 0.000000 0.000000 1.000000
vn 0.000000 0.000000 1.000000
vn 1.000000 0.000000 0.000000
vn 1.000000 0.000000 0.000000
vn 0.000000 0.000000 -1.000000
vn 0.000000 0.000000 -1.000000
vn -0.951679 0.307096 0.000000
vn -0.951679 0.307096 0.000000
vn -0.951678 0.307096 0.000000
vn -0.951679 0.307096 0.000000
vn -0.888903 -0.458095 -0.000000
vn -0.888903 -0.458095 -0.000000
vn -0.888903 -0.458095 -0.000000
vn -0.888903 -0.458095 -0.000000
vn -0.359242 -0.933245 -0.000000
vn -0.359242 -0.933245 -0.000000
vn -0.359242 -0.933245 -0.000000
vn -0.359242 -0.933245 -0.000000
vn 0.356366 -0.934346 0.000000
vn 0.356366 -0.934346 0.000000
vn 0.356366 -0.934346 0.000000
vn 0.356366 -0.934346 0.000000
vn 0.901521 -0.432736 -0.000000
vn 0.901521 -0.432736 -0.000000
vn 0.901521 -0.432736 -0.000000
vn 0.901521 -0.432736 -0.000000
vn 0.946205 0.323569 0.000000
vn 0.946205 0.323569 0.000000
vn 0.946205 0.323569 0.000000
vn 0.946205 0.323569 0.000000
s 1
g pCube1
usemtl initialShadingGroup
f 19/26/1 20/27/2 16/22/3 3/3/4
s 2
f 3/3/5 16/22/6 13/19/7 5/5/8
s 3
f 5/5/9 13/19/10 17/23/11 18/25/12
s off
f 7/7/13 14/20/14 15/21/15 1/9/16
s 4
f 22/29/17 23/31/18 6/12/19 4/4/20
s 5
f 18/24/21 19/26/22 3/3/23 5/14/24
s 3
f 9/15/25 6/6/26 23/30/27 24/32/28
s off
f 11/17/29 10/16/30 8/8/31 2/10/32
s 1
f 12/18/33 21/28/34 22/29/35 4/4/36
s 2
f 9/15/37 12/18/38 4/4/39 6/6/40
s 3
f 26/34/41 9/15/25 24/32/28 25/33/42
s 1
f 27/35/43 28/36/44 21/28/34 12/18/33
s 2
f 26/34/45 27/35/46 12/18/38 9/15/37
s 3
f 18/25/12 17/23/11 30/38/47 31/40/48
s 5
f 31/39/49 32/41/50 19/26/22 18/24/21
s 1
f 32/41/51 33/42/52 20/27/2 19/26/1
f 22/29/35 21/28/34 34/43/53 35/44/54
s 4
f 35/44/55 36/46/56 23/31/18 22/29/17
s 3
f 24/32/28 23/30/27 36/45/57 29/37/58
f 13/19/10 26/34/41 25/33/42 17/23/11
s 2
f 13/19/7 16/22/6 27/35/46 26/34/45
s 1
f 16/22/3 20/27/2 28/36/44 27/35/43
s 3
f 31/40/48 30/38/47 14/20/59 7/7/60
s 5
f 7/13/61 1/1/62 32/41/50 31/39/49
s 1
f 1/1/63 15/21/64 33/42/52 32/41/51
f 35/44/54 34/43/53 11/17/65 2/2/66
s 4
f 2/2/67 8/11/68 36/46/56 35/44/55
s 3
f 29/37/58 36/45/57 8/8/69 10/16/70
s off
f 11/17/71 34/43/72 29/37/73 10/16/74
f 34/43/75 21/28/76 24/32/77 29/37/78
f 21/28/79 28/36/80 25/33/81 24/32/82
f 28/36/83 20/27/84 17/23/85 25/33/86
f 20/27/87 33/42/88 30/38/89 17/23/90
f 33/42/91 15/21/92 14/20/93 30/38/94
