# This file uses centimeters as units for non-parametric coordinates.

mtllib Beaker.mtl
g default
v 0.951057 0.000819 -0.309017
v 0.809018 0.000819 -0.587786
v 0.587786 0.000819 -0.809017
v 0.309017 0.000819 -0.951057
v 0.000000 0.000819 -1.000000
v -0.309017 0.000819 -0.951057
v -0.587785 0.000819 -0.809017
v -0.809017 0.000819 -0.587785
v -0.951057 0.000819 -0.309017
v -1.000000 0.000819 0.000000
v -0.951057 0.000819 0.309017
v -0.809017 0.000819 0.587785
v -0.587785 0.000819 0.809017
v -0.309017 0.000819 0.951057
v -0.000000 0.000819 1.000000
v 0.309017 0.000819 0.951057
v 0.587785 0.000819 0.809017
v 0.809017 0.000819 0.587785
v 0.951057 0.000819 0.309017
v 1.000000 0.000819 0.000000
v 0.201164 1.577786 -0.065362
v 0.171121 1.577786 -0.124326
v 0.124326 1.577786 -0.171121
v 0.065362 1.577786 -0.201164
v 0.000000 1.577786 -0.211517
v -0.065362 1.577786 -0.201164
v -0.124326 1.577786 -0.171121
v -0.171121 1.577786 -0.124326
v -0.201164 1.577786 -0.065362
v -0.211517 1.577786 0.000000
v -0.201164 1.577786 0.065362
v -0.171121 1.577786 0.124326
v -0.124326 1.577786 0.171121
v -0.065362 1.577786 0.201164
v -0.000000 1.577786 0.211517
v 0.065362 1.577786 0.201164
v 0.124326 1.577786 0.171121
v 0.171121 1.577786 0.124326
v 0.201164 1.577786 0.065362
v 0.211517 1.577786 0.000000
v 0.171121 2.717406 -0.124326
v 0.201164 2.717406 -0.065362
v 0.124326 2.717406 -0.171120
v 0.065362 2.717406 -0.201164
v -0.000000 2.717406 -0.211516
v -0.065362 2.717406 -0.201164
v -0.124326 2.717406 -0.171120
v -0.171121 2.717406 -0.124326
v -0.201164 2.717406 -0.065362
v -0.211517 2.717406 0.000000
v -0.201164 2.717406 0.065363
v -0.171121 2.717406 0.124327
v -0.124326 2.717406 0.171121
v -0.065362 2.717406 0.201165
v -0.000000 2.717406 0.211517
v 0.065362 2.717406 0.201165
v 0.124326 2.717406 0.171121
v 0.171121 2.717406 0.124327
v 0.201164 2.717406 0.065363
v 0.211517 2.717406 0.000000
v 0.171121 2.782385 -0.124326
v 0.201164 2.782385 -0.065362
v 0.124326 2.782385 -0.171120
v 0.065362 2.782385 -0.201164
v -0.000000 2.782385 -0.211516
v -0.065362 2.782385 -0.201164
v -0.124326 2.782385 -0.171120
v -0.171121 2.782385 -0.124326
v -0.201164 2.782385 -0.065362
v -0.211517 2.782385 0.000000
v -0.201164 2.782385 0.065363
v -0.171121 2.782385 0.124327
v -0.124326 2.782385 0.171121
v -0.065362 2.782385 0.201165
v -0.000000 2.782385 0.211517
v 0.065362 2.782385 0.201165
v 0.124326 2.782385 0.171121
v 0.171121 2.782385 0.124327
v 0.201164 2.782385 0.065363
v 0.211517 2.782385 0.000000
v 0.197155 2.717406 -0.143241
v 0.231770 2.717406 -0.075306
v 0.197155 2.782385 -0.143241
v 0.231770 2.782385 -0.075306
v 0.143241 2.717406 -0.197155
v 0.143241 2.782385 -0.197155
v 0.075307 2.717406 -0.231769
v 0.075307 2.782385 -0.231769
v -0.000000 2.717406 -0.243697
v -0.000000 2.782385 -0.243697
v -0.075307 2.717406 -0.231769
v -0.075307 2.782385 -0.231769
v -0.143241 2.717406 -0.197155
v -0.143241 2.782385 -0.197155
v -0.197155 2.717406 -0.143241
v -0.197155 2.782385 -0.143241
v -0.231770 2.717406 -0.075306
v -0.231770 2.782385 -0.075306
v -0.243697 2.717406 0.000000
v -0.243697 2.782385 0.000000
v -0.231770 2.717406 0.075307
v -0.231770 2.782385 0.075307
v -0.197155 2.717406 0.143242
v -0.197155 2.782385 0.143242
v -0.143241 2.717406 0.197155
v -0.143241 2.782385 0.197155
v -0.075306 2.717406 0.231770
v -0.075306 2.782385 0.231770
v 0.000000 2.717406 0.243697
v 0.000000 2.782385 0.243697
v 0.075306 2.717406 0.231770
v 0.075306 2.782385 0.231770
v 0.143241 2.717406 0.197155
v 0.143241 2.782385 0.197155
v 0.197155 2.717406 0.143242
v 0.197155 2.782385 0.143242
v 0.231769 2.717406 0.075307
v 0.231769 2.782385 0.075307
v 0.243697 2.717406 0.000000
v 0.243697 2.782385 0.000000
vt 0.737764 0.172746
vt 0.702254 0.103054
vt 0.646946 0.047746
vt 0.577254 0.012236
vt 0.500000 -0.000000
vt 0.422746 0.012236
vt 0.353054 0.047746
vt 0.297746 0.103054
vt 0.262236 0.172746
vt 0.250000 0.250000
vt 0.262236 0.327254
vt 0.297746 0.396946
vt 0.353054 0.452254
vt 0.422746 0.487764
vt 0.500000 0.500000
vt 0.577254 0.487764
vt 0.646946 0.452254
vt 0.702254 0.396946
vt 0.737764 0.327254
vt 0.750000 0.250000
vt 0.250000 0.500000
vt 0.275000 0.500000
vt 0.300000 0.500000
vt 0.325000 0.500000
vt 0.350000 0.500000
vt 0.375000 0.500000
vt 0.400000 0.500000
vt 0.425000 0.500000
vt 0.450000 0.500000
vt 0.475000 0.500000
vt 0.500000 0.500000
vt 0.525000 0.500000
vt 0.550000 0.500000
vt 0.575000 0.500000
vt 0.600000 0.500000
vt 0.625000 0.500000
vt 0.650000 0.500000
vt 0.675000 0.500000
vt 0.700000 0.500000
vt 0.725000 0.500000
vt 0.750000 0.500000
vt 0.552879 0.894242
vt 0.447121 0.894242
vt 0.452409 0.894242
vt 0.457697 0.894242
vt 0.462985 0.894242
vt 0.468273 0.894242
vt 0.473560 0.894242
vt 0.478848 0.894242
vt 0.484136 0.894242
vt 0.489424 0.894242
vt 0.494712 0.894242
vt 0.500000 0.894242
vt 0.505288 0.894242
vt 0.510576 0.894242
vt 0.515864 0.894242
vt 0.521152 0.894242
vt 0.526440 0.894242
vt 0.531727 0.894242
vt 0.537015 0.894242
vt 0.542303 0.894242
vt 0.547591 0.894242
vt 0.447121 0.894242
vt 0.452409 0.894242
vt 0.457697 0.894242
vt 0.462985 0.894242
vt 0.468273 0.894242
vt 0.473560 0.894242
vt 0.478848 0.894242
vt 0.484136 0.894242
vt 0.489424 0.894242
vt 0.494712 0.894242
vt 0.500000 0.894242
vt 0.505288 0.894242
vt 0.510576 0.894242
vt 0.515864 0.894242
vt 0.521152 0.894242
vt 0.526440 0.894242
vt 0.531727 0.894242
vt 0.537015 0.894242
vt 0.542303 0.894242
vt 0.547591 0.894242
vt 0.447121 0.894242
vt 0.452409 0.894242
vt 0.457697 0.894242
vt 0.462985 0.894242
vt 0.468273 0.894242
vt 0.473560 0.894242
vt 0.478848 0.894242
vt 0.484136 0.894242
vt 0.489424 0.894242
vt 0.494712 0.894242
vt 0.500000 0.894242
vt 0.505288 0.894242
vt 0.510576 0.894242
vt 0.515864 0.894242
vt 0.521152 0.894242
vt 0.526440 0.894242
vt 0.531727 0.894242
vt 0.537015 0.894242
vt 0.542303 0.894242
vt 0.547591 0.894242
vt 0.447121 0.894242
vt 0.452409 0.894242
vt 0.452409 0.894242
vt 0.447121 0.894242
vt 0.457697 0.894242
vt 0.457697 0.894242
vt 0.462985 0.894242
vt 0.462985 0.894242
vt 0.468273 0.894242
vt 0.468273 0.894242
vt 0.473560 0.894242
vt 0.473560 0.894242
vt 0.478848 0.894242
vt 0.478848 0.894242
vt 0.484136 0.894242
vt 0.484136 0.894242
vt 0.489424 0.894242
vt 0.489424 0.894242
vt 0.494712 0.894242
vt 0.494712 0.894242
vt 0.500000 0.894242
vt 0.500000 0.894242
vt 0.505288 0.894242
vt 0.505288 0.894242
vt 0.510576 0.894242
vt 0.510576 0.894242
vt 0.515864 0.894242
vt 0.515864 0.894242
vt 0.521152 0.894242
vt 0.521152 0.894242
vt 0.526440 0.894242
vt 0.526440 0.894242
vt 0.531727 0.894242
vt 0.531727 0.894242
vt 0.537015 0.894242
vt 0.537015 0.894242
vt 0.542303 0.894242
vt 0.542303 0.894242
vt 0.547591 0.894242
vt 0.547591 0.894242
vn 0.000000 -1.000000 -0.000000
vn 0.000000 -1.000000 -0.000000
vn 0.000000 -1.000000 -0.000000
vn 0.000000 -1.000000 -0.000000
vn 0.000000 -1.000000 -0.000000
vn 0.000000 -1.000000 -0.000000
vn 0.000000 -1.000000 -0.000000
vn 0.000000 -1.000000 -0.000000
vn 0.000000 -1.000000 -0.000000
vn 0.000000 -1.000000 -0.000000
vn 0.000000 -1.000000 -0.000000
vn 0.000000 -1.000000 -0.000000
vn 0.000000 -1.000000 -0.000000
vn 0.000000 -1.000000 -0.000000
vn 0.000000 -1.000000 -0.000000
vn 0.000000 -1.000000 -0.000000
vn 0.000000 -1.000000 -0.000000
vn 0.000000 -1.000000 -0.000000
vn 0.000000 -1.000000 -0.000000
vn 0.000000 -1.000000 -0.000000
vn 0.850651 0.447214 -0.276392
vn 0.723607 0.447214 -0.525731
vn 0.750448 0.373562 -0.545233
vn 0.882205 0.373562 -0.286645
vn 0.525731 0.447214 -0.723607
vn 0.545233 0.373562 -0.750449
vn 0.276393 0.447214 -0.850651
vn 0.286646 0.373562 -0.882205
vn -0.000000 0.447214 -0.894427
vn -0.000000 0.373562 -0.927605
vn -0.276393 0.447214 -0.850651
vn -0.286646 0.373562 -0.882205
vn -0.525731 0.447214 -0.723607
vn -0.545233 0.373562 -0.750448
vn -0.723607 0.447214 -0.525731
vn -0.750449 0.373562 -0.545233
vn -0.850651 0.447214 -0.276393
vn -0.882205 0.373562 -0.286646
vn -0.894427 0.447214 -0.000000
vn -0.927606 0.373561 -0.000000
vn -0.850651 0.447214 0.276393
vn -0.882205 0.373561 0.286646
vn -0.723607 0.447214 0.525731
vn -0.750449 0.373561 0.545233
vn -0.525731 0.447214 0.723607
vn -0.545233 0.373561 0.750449
vn -0.276393 0.447214 0.850651
vn -0.286646 0.373561 0.882205
vn 0.000000 0.447214 0.894427
vn 0.000000 0.373561 0.927605
vn 0.276393 0.447214 0.850651
vn 0.286646 0.373561 0.882205
vn 0.525731 0.447214 0.723607
vn 0.545233 0.373561 0.750449
vn 0.723607 0.447214 0.525731
vn 0.750449 0.373561 0.545233
vn 0.850651 0.447214 0.276393
vn 0.882205 0.373561 0.286646
vn 0.894427 0.447214 0.000001
vn 0.927605 0.373561 0.000001
vn 0.000000 1.000000 0.000000
vn 0.000000 1.000000 0.000000
vn 0.000000 1.000000 0.000000
vn 0.000000 1.000000 0.000000
vn 0.000000 1.000000 0.000000
vn 0.000000 1.000000 0.000000
vn 0.000000 1.000000 0.000000
vn 0.000000 1.000000 0.000000
vn 0.000000 1.000000 0.000000
vn 0.000000 1.000000 0.000000
vn 0.000000 1.000000 0.000000
vn 0.000000 1.000000 0.000000
vn 0.000000 1.000000 0.000000
vn 0.000000 1.000000 0.000000
vn 0.000000 1.000000 0.000000
vn 0.000000 1.000000 0.000000
vn 0.000000 1.000000 0.000000
vn 0.000000 1.000000 0.000000
vn 0.000000 1.000000 0.000000
vn 0.000000 1.000000 0.000000
vn 0.809017 0.000000 -0.587785
vn 0.951057 0.000000 -0.309016
vn 0.587785 0.000000 -0.809017
vn 0.309017 0.000000 -0.951057
vn -0.000000 0.000000 -1.000000
vn -0.309017 0.000000 -0.951056
vn -0.587786 0.000000 -0.809017
vn -0.809017 0.000000 -0.587785
vn -0.951057 0.000000 -0.309017
vn -1.000000 0.000000 0.000000
vn -0.951057 -0.000000 0.309017
vn -0.809017 -0.000000 0.587785
vn -0.587785 -0.000000 0.809017
vn -0.309017 -0.000000 0.951057
vn 0.000000 -0.000000 1.000000
vn 0.309017 -0.000000 0.951057
vn 0.587785 -0.000000 0.809017
vn 0.809017 -0.000000 0.587785
vn 0.951057 -0.000000 0.309017
vn 1.000000 0.000000 0.000001
vn 0.951057 0.000000 -0.309016
vn 0.809017 0.000000 -0.587785
vn 0.809017 0.000000 -0.587785
vn 0.951057 0.000000 -0.309016
vn 0.587786 0.000000 -0.809017
vn 0.587786 0.000000 -0.809017
vn 0.309017 0.000000 -0.951057
vn 0.309017 0.000000 -0.951057
vn -0.000000 0.000000 -1.000000
vn -0.000000 0.000000 -1.000000
vn -0.309017 0.000000 -0.951056
vn -0.309017 0.000000 -0.951056
vn -0.587786 0.000000 -0.809017
vn -0.587786 0.000000 -0.809017
vn -0.809017 0.000000 -0.587785
vn -0.809017 0.000000 -0.587785
vn -0.951057 -0.000000 -0.309017
vn -0.951057 -0.000000 -0.309017
vn -1.000000 0.000000 -0.000000
vn -1.000000 0.000000 0.000000
vn -0.951057 0.000000 0.309017
vn -0.951057 0.000000 0.309017
vn -0.809017 -0.000000 0.587785
vn -0.809017 -0.000000 0.587785
vn -0.587785 -0.000000 0.809017
vn -0.587785 -0.000000 0.809017
vn -0.309017 -0.000000 0.951057
vn -0.309017 -0.000000 0.951057
vn 0.000000 -0.000000 1.000000
vn 0.000000 -0.000000 1.000000
vn 0.309017 -0.000000 0.951057
vn 0.309017 -0.000000 0.951057
vn 0.587785 -0.000000 0.809017
vn 0.587785 -0.000000 0.809017
vn 0.809017 -0.000000 0.587785
vn 0.809017 -0.000000 0.587785
vn 0.951057 -0.000000 0.309017
vn 0.951056 -0.000000 0.309017
vn 1.000000 -0.000000 0.000001
vn 1.000000 -0.000000 0.000001
vn 0.000000 -1.000000 -0.000002
vn 0.000000 -1.000000 -0.000001
vn 0.000000 -1.000000 -0.000001
vn 0.000000 -1.000000 -0.000002
vn 0.000000 1.000000 -0.000001
vn 0.000000 1.000000 0.000001
vn 0.000000 -1.000000 -0.000001
vn 0.000000 -1.000000 -0.000001
vn 0.000000 1.000000 -0.000001
vn 0.000000 -1.000000 0.000000
vn 0.000000 -1.000000 0.000000
vn 0.000000 1.000000 -0.000003
vn 0.000000 -1.000000 -0.000000
vn 0.000000 -1.000000 -0.000000
vn 0.000000 1.000000 0.000001
vn 0.000000 -1.000000 -0.000002
vn 0.000000 -1.000000 -0.000002
vn 0.000000 1.000000 0.000004
vn 0.000000 -1.000000 -0.000000
vn 0.000000 -1.000000 0.000000
vn 0.000000 1.000000 0.000002
vn 0.000000 -1.000000 0.000000
vn 0.000000 -1.000000 0.000000
vn 0.000000 1.000000 0.000000
vn 0.000000 -1.000000 0.000001
vn 0.000000 -1.000000 0.000001
vn 0.000000 1.000000 0.000000
vn 0.000000 -1.000000 0.000001
vn 0.000000 -1.000000 0.000001
vn 0.000000 1.000000 -0.000001
vn 0.000000 -1.000000 0.000000
vn 0.000000 -1.000000 -0.000000
vn 0.000000 1.000000 -0.000002
vn 0.000000 -1.000000 0.000001
vn 0.000000 -1.000000 0.000001
vn 0.000000 1.000000 0.000001
vn 0.000000 -1.000000 0.000001
vn 0.000000 -1.000000 0.000001
vn 0.000000 1.000000 0.000001
vn 0.000000 -1.000000 0.000001
vn 0.000000 -1.000000 0.000001
vn 0.000000 1.000000 0.000001
vn 0.000000 -1.000000 0.000001
vn 0.000000 -1.000000 0.000001
vn 0.000000 1.000000 0.000001
vn 0.000000 -1.000000 0.000002
vn 0.000000 -1.000000 0.000002
vn 0.000000 1.000000 0.000001
vn 0.000000 -1.000000 0.000000
vn 0.000000 -1.000000 0.000000
vn 0.000000 1.000000 0.000000
vn 0.000000 -1.000000 -0.000001
vn 0.000000 -1.000000 -0.000001
vn 0.000000 1.000000 -0.000001
vn 0.000000 -1.000000 0.000000
vn 0.000000 -1.000000 0.000000
vn 0.000000 1.000000 0.000000
vn 0.000000 -1.000000 -0.000001
vn 0.000000 -1.000000 -0.000001
vn 0.000000 1.000000 -0.000001
s off
g pCone1
usemtl initialShadingGroup
f 1/1/1 20/20/2 19/19/3 18/18/4 17/17/5 16/16/6 15/15/7 14/14/8 13/13/9 12/12/10 11/11/11 10/10/12 9/9/13 8/8/14 7/7/15 6/6/16 5/5/17 4/4/18 3/3/19 2/2/20
s 1
f 1/21/21 2/22/22 22/44/23 21/43/24
f 2/22/22 3/23/25 23/45/26 22/44/23
f 3/23/25 4/24/27 24/46/28 23/45/26
f 4/24/27 5/25/29 25/47/30 24/46/28
f 5/25/29 6/26/31 26/48/32 25/47/30
f 6/26/31 7/27/33 27/49/34 26/48/32
f 7/27/33 8/28/35 28/50/36 27/49/34
f 8/28/35 9/29/37 29/51/38 28/50/36
f 9/29/37 10/30/39 30/52/40 29/51/38
f 10/30/39 11/31/41 31/53/42 30/52/40
f 11/31/41 12/32/43 32/54/44 31/53/42
f 12/32/43 13/33/45 33/55/46 32/54/44
f 13/33/45 14/34/47 34/56/48 33/55/46
f 14/34/47 15/35/49 35/57/50 34/56/48
f 15/35/49 16/36/51 36/58/52 35/57/50
f 16/36/51 17/37/53 37/59/54 36/58/52
f 17/37/53 18/38/55 38/60/56 37/59/54
f 18/38/55 19/39/57 39/61/58 38/60/56
f 19/39/57 20/40/59 40/62/60 39/61/58
f 20/40/59 1/41/21 21/42/24 40/62/60
s 2
f 62/83/61 61/84/62 63/85/63 64/86/64 65/87/65 66/88/66 67/89/67 68/90/68 69/91/69 70/92/70 71/93/71 72/94/72 73/95/73 74/96/74 75/97/75 76/98/76 77/99/77 78/100/78 79/101/79 80/102/80
s 1
f 21/43/24 22/44/23 41/64/81 42/63/82
f 22/44/23 23/45/26 43/65/83 41/64/81
f 23/45/26 24/46/28 44/66/84 43/65/83
f 24/46/28 25/47/30 45/67/85 44/66/84
f 25/47/30 26/48/32 46/68/86 45/67/85
f 26/48/32 27/49/34 47/69/87 46/68/86
f 27/49/34 28/50/36 48/70/88 47/69/87
f 28/50/36 29/51/38 49/71/89 48/70/88
f 29/51/38 30/52/40 50/72/90 49/71/89
f 30/52/40 31/53/42 51/73/91 50/72/90
f 31/53/42 32/54/44 52/74/92 51/73/91
f 32/54/44 33/55/46 53/75/93 52/74/92
f 33/55/46 34/56/48 54/76/94 53/75/93
f 34/56/48 35/57/50 55/77/95 54/76/94
f 35/57/50 36/58/52 56/78/96 55/77/95
f 36/58/52 37/59/54 57/79/97 56/78/96
f 37/59/54 38/60/56 58/80/98 57/79/97
f 38/60/56 39/61/58 59/81/99 58/80/98
f 39/61/58 40/62/60 60/82/100 59/81/99
f 40/62/60 21/43/24 42/63/82 60/82/100
s 3
f 82/103/101 81/104/102 83/105/103 84/106/104
f 81/104/102 85/107/105 86/108/106 83/105/103
f 85/107/105 87/109/107 88/110/108 86/108/106
f 87/109/107 89/111/109 90/112/110 88/110/108
f 89/111/109 91/113/111 92/114/112 90/112/110
f 91/113/111 93/115/113 94/116/114 92/114/112
f 93/115/113 95/117/115 96/118/116 94/116/114
f 95/117/115 97/119/117 98/120/118 96/118/116
f 97/119/117 99/121/119 100/122/120 98/120/118
f 99/121/119 101/123/121 102/124/122 100/122/120
f 101/123/121 103/125/123 104/126/124 102/124/122
f 103/125/123 105/127/125 106/128/126 104/126/124
f 105/127/125 107/129/127 108/130/128 106/128/126
f 107/129/127 109/131/129 110/132/130 108/130/128
f 109/131/129 111/133/131 112/134/132 110/132/130
f 111/133/131 113/135/133 114/136/134 112/134/132
f 113/135/133 115/137/135 116/138/136 114/136/134
f 115/137/135 117/139/137 118/140/138 116/138/136
f 117/139/137 119/141/139 120/142/140 118/140/138
f 119/141/139 82/103/101 84/106/104 120/142/140
s 4
f 42/63/141 41/64/142 81/104/143 82/103/144
s 2
f 61/84/62 62/83/61 84/106/145 83/105/146
s 4
f 41/64/142 43/65/147 85/107/148 81/104/143
s 2
f 63/85/63 61/84/62 83/105/146 86/108/149
s 4
f 43/65/147 44/66/150 87/109/151 85/107/148
s 2
f 64/86/64 63/85/63 86/108/149 88/110/152
s 4
f 44/66/150 45/67/153 89/111/154 87/109/151
s 2
f 65/87/65 64/86/64 88/110/152 90/112/155
s 4
f 45/67/153 46/68/156 91/113/157 89/111/154
s 2
f 66/88/66 65/87/65 90/112/155 92/114/158
s 4
f 46/68/156 47/69/159 93/115/160 91/113/157
s 2
f 67/89/67 66/88/66 92/114/158 94/116/161
s 4
f 47/69/159 48/70/162 95/117/163 93/115/160
s 2
f 68/90/68 67/89/67 94/116/161 96/118/164
s 4
f 48/70/162 49/71/165 97/119/166 95/117/163
s 2
f 69/91/69 68/90/68 96/118/164 98/120/167
s 4
f 49/71/165 50/72/168 99/121/169 97/119/166
s 2
f 70/92/70 69/91/69 98/120/167 100/122/170
s 4
f 50/72/168 51/73/171 101/123/172 99/121/169
s 2
f 71/93/71 70/92/70 100/122/170 102/124/173
s 4
f 51/73/171 52/74/174 103/125/175 101/123/172
s 2
f 72/94/72 71/93/71 102/124/173 104/126/176
s 4
f 52/74/174 53/75/177 105/127/178 103/125/175
s 2
f 73/95/73 72/94/72 104/126/176 106/128/179
s 4
f 53/75/177 54/76/180 107/129/181 105/127/178
s 2
f 74/96/74 73/95/73 106/128/179 108/130/182
s 4
f 54/76/180 55/77/183 109/131/184 107/129/181
s 2
f 75/97/75 74/96/74 108/130/182 110/132/185
s 4
f 55/77/183 56/78/186 111/133/187 109/131/184
s 2
f 76/98/76 75/97/75 110/132/185 112/134/188
s 4
f 56/78/186 57/79/189 113/135/190 111/133/187
s 2
f 77/99/77 76/98/76 112/134/188 114/136/191
s 4
f 57/79/189 58/80/192 115/137/193 113/135/190
s 2
f 78/100/78 77/99/77 114/136/191 116/138/194
s 4
f 58/80/192 59/81/195 117/139/196 115/137/193
s 2
f 79/101/79 78/100/78 116/138/194 118/140/197
s 4
f 59/81/195 60/82/198 119/141/199 117/139/196
s 2
f 80/102/80 79/101/79 118/140/197 120/142/200
s 4
f 60/82/198 42/63/141 82/103/144 119/141/199
s 2
f 62/83/61 80/102/80 120/142/200 84/106/145
