# This file uses centimeters as units for non-parametric coordinates.

mtllib Crate 2.mtl
g default
v -2.973308 1.996447 1.167137
v -2.843641 1.996447 1.296805
v -2.843641 2.126115 1.167137
v 2.843641 2.126115 1.167137
v 2.843641 1.996447 1.296805
v 2.973308 1.996447 1.167137
v -2.973308 1.996447 -1.167137
v -2.843641 2.126115 -1.167137
v -2.843641 1.996447 -1.296805
v 2.843641 1.996447 -1.296805
v 2.843641 2.126115 -1.167137
v 2.973308 1.996447 -1.167137
v -2.973308 0.025534 1.167137
v -2.843641 0.025534 1.296805
v 2.973308 0.025534 1.167137
v 2.843641 0.025534 1.296805
v -2.973308 0.025534 -1.167137
v -2.843641 0.025534 -1.296805
v 2.973308 0.025534 -1.167137
v 2.843641 0.025534 -1.296805
v -2.274913 0.222625 1.296805
v -2.274913 1.799356 1.296805
v 2.274913 0.222625 1.296805
v 2.274913 1.799356 1.296805
v 2.274913 2.126115 0.933710
v -2.274913 2.126115 0.933710
v 2.274913 2.126115 -0.933710
v -2.274913 2.126115 -0.933710
v 2.274913 1.799356 -1.296805
v -2.274913 1.799356 -1.296805
v 2.274913 0.222625 -1.296805
v -2.274913 0.222625 -1.296805
v 2.973308 0.222625 0.933710
v 2.973308 1.799356 0.933710
v 2.973308 0.222625 -0.933710
v 2.973308 1.799356 -0.933710
v -2.973308 0.222625 -0.933710
v -2.973308 1.799356 -0.933710
v -2.973308 0.222625 0.933710
v -2.973308 1.799356 0.933710
v -2.274913 0.222625 1.122128
v -2.274913 1.799356 1.122128
v 2.274913 0.222625 1.122128
v 2.274913 1.799356 1.122128
v 2.274913 1.951438 0.933710
v -2.274913 1.951438 0.933710
v 2.274913 1.951438 -0.933710
v -2.274913 1.951438 -0.933710
v 2.274913 1.799356 -1.122128
v -2.274913 1.799356 -1.122128
v 2.274913 0.222625 -1.122128
v -2.274913 0.222625 -1.122128
v 2.798632 0.222625 0.933710
v 2.798632 1.799356 0.933710
v 2.798632 0.222625 -0.933710
v 2.798632 1.799356 -0.933710
v -2.798632 0.222625 -0.933710
v -2.798632 1.799356 -0.933710
v -2.798632 0.222625 0.933710
v -2.798632 1.799356 0.933710
v -2.274913 0.858583 1.122128
v -2.274913 1.163398 1.122128
v 2.274913 0.858583 1.122128
v 2.274913 1.163398 1.122128
v 2.274913 1.163398 -1.122128
v -2.274913 1.163398 -1.122128
v 2.274913 0.858583 -1.122128
v -2.274913 0.858583 -1.122128
v 2.798632 0.858583 0.933710
v 2.798632 1.163398 0.933710
v 2.798632 0.858583 -0.933710
v 2.798632 1.163398 -0.933710
v -2.798632 0.858583 -0.933710
v -2.798632 1.163398 -0.933710
v -2.798632 0.858583 0.933710
v -2.798632 1.163398 0.933710
v -2.274913 0.858583 1.244210
v -2.274913 1.163398 1.244210
v 2.274913 0.858583 1.244210
v 2.274913 1.163398 1.244210
v 2.274913 1.163398 -1.244210
v -2.274913 1.163398 -1.244210
v 2.274913 0.858583 -1.244210
v -2.274913 0.858583 -1.244210
v 2.920714 0.858583 0.933710
v 2.920714 1.163398 0.933710
v 2.920714 0.858583 -0.933710
v 2.920714 1.163398 -0.933710
v -2.920714 0.858583 -0.933710
v -2.920714 1.163398 -0.933710
v -2.920714 0.858583 0.933710
v -2.920714 1.163398 0.933710
vt 0.625000 0.762499
vt 0.625000 0.987501
vt 0.619549 1.000000
vt 0.380451 1.000000
vt 0.375000 0.987501
vt 0.375000 0.262499
vt 0.375000 0.487501
vt 0.362501 0.234568
vt 0.380451 0.000000
vt 0.380451 0.234568
vt 0.625000 0.262499
vt 0.619549 0.234568
vt 0.637499 0.000000
vt 0.375000 0.515432
vt 0.375000 0.762499
vt 0.380451 0.487501
vt 0.619549 0.487501
vt 0.625000 0.515432
vt 0.619549 0.750000
vt 0.619549 0.000000
vt 0.380451 0.262499
vt 0.619549 0.262499
vt 0.380451 0.515432
vt 0.619549 0.515432
vt 0.380451 0.750000
vt 0.637499 0.234568
vt 0.862501 0.000000
vt 0.862501 0.234568
vt 0.137499 0.234568
vt 0.137499 0.000000
vt 0.362501 0.000000
vt 0.625000 0.487501
vt 0.380451 0.234568
vt 0.380451 0.000000
vt 0.619549 0.000000
vt 0.619549 0.234568
vt 0.380451 0.262499
vt 0.619549 0.262499
vt 0.619549 0.487501
vt 0.380451 0.487501
vt 0.380451 0.515432
vt 0.619549 0.515432
vt 0.619549 0.750000
vt 0.380451 0.750000
vt 0.637499 0.234568
vt 0.637499 0.000000
vt 0.862501 0.000000
vt 0.862501 0.234568
vt 0.137499 0.234568
vt 0.137499 0.000000
vt 0.362501 0.000000
vt 0.362501 0.234568
vt 0.380451 0.234568
vt 0.380451 0.000000
vt 0.619549 0.000000
vt 0.619549 0.234568
vt 0.380451 0.262499
vt 0.619549 0.262499
vt 0.619549 0.487501
vt 0.380451 0.487501
vt 0.380451 0.515432
vt 0.619549 0.515432
vt 0.619549 0.750000
vt 0.380451 0.750000
vt 0.637499 0.234568
vt 0.637499 0.000000
vt 0.862501 0.000000
vt 0.862501 0.234568
vt 0.137499 0.234568
vt 0.137499 0.000000
vt 0.362501 0.000000
vt 0.362501 0.234568
vt 0.380451 0.234568
vt 0.380451 0.000000
vt 0.619549 0.000000
vt 0.619549 0.234568
vt 0.380451 0.515432
vt 0.619549 0.515432
vt 0.619549 0.750000
vt 0.380451 0.750000
vt 0.637499 0.234568
vt 0.637499 0.000000
vt 0.862501 0.000000
vt 0.862501 0.234568
vt 0.137499 0.234568
vt 0.137499 0.000000
vt 0.362501 0.000000
vt 0.362501 0.234568
vt 0.380451 0.234568
vt 0.380451 0.000000
vt 0.619549 0.000000
vt 0.619549 0.234568
vt 0.380451 0.515432
vt 0.619549 0.515432
vt 0.619549 0.750000
vt 0.380451 0.750000
vt 0.637499 0.234568
vt 0.637499 0.000000
vt 0.862501 0.000000
vt 0.862501 0.234568
vt 0.137499 0.234568
vt 0.137499 0.000000
vt 0.362501 0.000000
vt 0.362501 0.234568
vn 0.000000 -1.000000 -0.000000
vn 0.000000 -1.000000 -0.000000
vn 0.000000 -1.000000 -0.000000
vn 0.000000 -1.000000 -0.000000
vn 0.000000 -1.000000 -0.000000
vn 0.000000 -1.000000 -0.000000
vn 0.000000 -1.000000 -0.000000
vn 0.000000 -1.000000 -0.000000
vn -0.707107 0.707107 0.000000
vn -0.707107 0.707107 0.000000
vn -0.707107 0.707107 0.000000
vn -0.707107 0.707107 0.000000
vn -0.707107 0.000000 0.707107
vn -0.707107 0.000000 0.707107
vn -0.707107 0.000000 0.707107
vn -0.707107 0.000000 0.707107
vn 0.000000 0.707107 0.707107
vn 0.000000 0.707107 0.707107
vn 0.000000 0.707107 0.707107
vn 0.000000 0.707107 0.707107
vn 0.707107 0.707107 0.000000
vn 0.707107 0.707107 0.000000
vn 0.707107 0.707107 0.000000
vn 0.707107 0.707107 0.000000
vn 0.707107 0.000000 0.707107
vn 0.707107 0.000000 0.707107
vn 0.707107 0.000000 0.707107
vn 0.707107 0.000000 0.707107
vn -0.707107 0.000000 -0.707107
vn -0.707107 0.000000 -0.707107
vn -0.707107 0.000000 -0.707107
vn -0.707107 0.000000 -0.707107
vn 0.000000 0.707107 -0.707107
vn 0.000000 0.707107 -0.707107
vn 0.000000 0.707107 -0.707107
vn 0.000000 0.707107 -0.707107
vn 0.707107 0.000000 -0.707107
vn 0.707107 0.000000 -0.707107
vn 0.707107 0.000000 -0.707107
vn 0.707107 0.000000 -0.707107
vn 0.000000 0.000000 1.000000
vn 0.000000 0.000000 1.000000
vn 0.000000 0.000000 1.000000
vn 0.000000 0.000000 1.000000
vn 0.000000 1.000000 0.000000
vn 0.000000 1.000000 0.000000
vn 0.000000 1.000000 0.000000
vn 0.000000 1.000000 0.000000
vn 0.000000 0.000000 -1.000000
vn 0.000000 0.000000 -1.000000
vn 0.000000 0.000000 -1.000000
vn 0.000000 0.000000 -1.000000
vn 1.000000 0.000000 0.000000
vn 1.000000 0.000000 0.000000
vn 1.000000 0.000000 0.000000
vn 1.000000 0.000000 0.000000
vn -1.000000 0.000000 0.000000
vn -1.000000 0.000000 0.000000
vn -1.000000 0.000000 0.000000
vn -1.000000 0.000000 0.000000
vn -0.577351 0.577350 0.577350
vn -0.577351 0.577350 0.577350
vn -0.577351 0.577350 0.577350
vn 0.577351 0.577350 0.577350
vn 0.577351 0.577350 0.577350
vn 0.577351 0.577350 0.577350
vn -0.577351 0.577350 -0.577350
vn -0.577351 0.577350 -0.577350
vn -0.577351 0.577350 -0.577350
vn 0.577351 0.577350 -0.577350
vn 0.577351 0.577350 -0.577350
vn 0.577351 0.577350 -0.577350
vn 0.000000 0.000000 1.000000
vn 0.000000 0.000000 1.000000
vn 0.000000 0.000000 1.000000
vn 0.000000 0.000000 1.000000
vn -0.000000 0.000000 1.000000
vn -0.000000 0.000000 1.000000
vn -0.000000 0.000000 1.000000
vn -0.000000 0.000000 1.000000
vn 0.000000 1.000000 0.000000
vn 0.000000 1.000000 0.000000
vn 0.000000 1.000000 0.000000
vn 0.000000 1.000000 0.000000
vn 0.000000 1.000000 -0.000000
vn 0.000000 1.000000 -0.000000
vn 0.000000 1.000000 -0.000000
vn 0.000000 1.000000 -0.000000
vn -0.000000 0.000000 -1.000000
vn -0.000000 0.000000 -1.000000
vn -0.000000 0.000000 -1.000000
vn -0.000000 0.000000 -1.000000
vn -0.000000 0.000000 -1.000000
vn -0.000000 0.000000 -1.000000
vn -0.000000 0.000000 -1.000000
vn -0.000000 0.000000 -1.000000
vn 1.000000 0.000000 0.000000
vn 1.000000 0.000000 0.000000
vn 1.000000 0.000000 0.000000
vn 1.000000 0.000000 0.000000
vn 1.000000 0.000000 0.000000
vn 1.000000 0.000000 0.000000
vn 1.000000 0.000000 0.000000
vn 1.000000 0.000000 0.000000
vn -1.000000 0.000000 0.000000
vn -1.000000 0.000000 0.000000
vn -1.000000 0.000000 0.000000
vn -1.000000 0.000000 0.000000
vn -1.000000 0.000000 0.000000
vn -1.000000 0.000000 0.000000
vn -1.000000 0.000000 0.000000
vn -1.000000 0.000000 0.000000
vn 1.000000 0.000000 0.000000
vn 1.000000 0.000000 0.000000
vn 1.000000 0.000000 0.000000
vn 1.000000 0.000000 0.000000
vn 0.000000 1.000000 0.000000
vn 0.000000 1.000000 0.000000
vn 0.000000 1.000000 0.000000
vn 0.000000 1.000000 0.000000
vn -1.000000 0.000000 0.000000
vn -1.000000 0.000000 0.000000
vn -1.000000 0.000000 0.000000
vn -1.000000 0.000000 0.000000
vn 0.000000 -1.000000 0.000000
vn 0.000000 -1.000000 0.000000
vn 0.000000 -1.000000 0.000000
vn 0.000000 -1.000000 0.000000
vn 0.000000 0.000000 -1.000000
vn 0.000000 0.000000 -1.000000
vn 0.000000 0.000000 -1.000000
vn 0.000000 0.000000 -1.000000
vn -1.000000 0.000000 0.000000
vn -1.000000 0.000000 0.000000
vn -1.000000 0.000000 0.000000
vn -1.000000 0.000000 0.000000
vn 0.000000 0.000000 1.000000
vn 0.000000 0.000000 1.000000
vn 0.000000 0.000000 1.000000
vn 0.000000 0.000000 1.000000
vn 1.000000 0.000000 0.000000
vn 1.000000 0.000000 0.000000
vn 1.000000 0.000000 0.000000
vn 1.000000 0.000000 0.000000
vn 0.000000 -1.000000 0.000000
vn 0.000000 -1.000000 0.000000
vn 0.000000 -1.000000 0.000000
vn 0.000000 -1.000000 0.000000
vn -1.000000 0.000000 0.000000
vn -1.000000 0.000000 0.000000
vn -1.000000 0.000000 0.000000
vn -1.000000 0.000000 0.000000
vn 0.000000 1.000000 0.000000
vn 0.000000 1.000000 0.000000
vn 0.000000 1.000000 0.000000
vn 0.000000 1.000000 0.000000
vn 1.000000 0.000000 0.000000
vn 1.000000 0.000000 0.000000
vn 1.000000 0.000000 0.000000
vn 1.000000 0.000000 0.000000
vn 0.000000 0.000000 -1.000000
vn 0.000000 0.000000 -1.000000
vn 0.000000 0.000000 -1.000000
vn 0.000000 0.000000 -1.000000
vn 0.000000 1.000000 0.000000
vn 0.000000 1.000000 0.000000
vn 0.000000 1.000000 0.000000
vn 0.000000 1.000000 0.000000
vn 0.000000 0.000000 1.000000
vn 0.000000 0.000000 1.000000
vn 0.000000 0.000000 1.000000
vn 0.000000 0.000000 1.000000
vn 0.000000 -1.000000 0.000000
vn 0.000000 -1.000000 0.000000
vn 0.000000 -1.000000 0.000000
vn 0.000000 -1.000000 0.000000
vn 0.000000 0.000000 1.000000
vn 0.000000 0.000000 1.000000
vn 0.000000 0.000000 1.000000
vn 0.000000 0.000000 1.000000
vn 0.000000 1.000000 0.000000
vn 0.000000 1.000000 0.000000
vn 0.000000 1.000000 0.000000
vn 0.000000 1.000000 0.000000
vn 0.000000 0.000000 -1.000000
vn 0.000000 0.000000 -1.000000
vn 0.000000 0.000000 -1.000000
vn 0.000000 0.000000 -1.000000
vn 0.000000 -1.000000 0.000000
vn 0.000000 -1.000000 0.000000
vn 0.000000 -1.000000 0.000000
vn 0.000000 -1.000000 0.000000
vn -1.000000 0.000000 0.000000
vn -1.000000 0.000000 0.000000
vn 0.000000 0.000000 1.000000
vn 0.000000 0.000000 1.000000
vn 0.000000 0.000000 1.000000
vn 0.000000 0.000000 1.000000
vn 1.000000 0.000000 0.000000
vn 1.000000 0.000000 0.000000
vn 0.000000 0.000000 1.000000
vn 0.000000 0.000000 1.000000
vn 0.000000 0.000000 1.000000
vn 0.000000 0.000000 1.000000
vn 0.000000 0.000000 -1.000000
vn 0.000000 0.000000 -1.000000
vn 0.000000 0.000000 -1.000000
vn 0.000000 0.000000 -1.000000
vn -1.000000 0.000000 0.000000
vn -1.000000 0.000000 0.000000
vn 0.000000 0.000000 -1.000000
vn 0.000000 0.000000 -1.000000
vn 0.000000 0.000000 -1.000000
vn 0.000000 0.000000 -1.000000
vn -1.000000 0.000000 0.000000
vn -1.000000 0.000000 0.000000
vn 0.000000 0.000000 0.000000
vn 0.000000 0.000000 0.000000
vn 1.000000 0.000000 0.000000
vn 1.000000 0.000000 0.000000
vn 1.000000 0.000000 0.000000
vn 1.000000 0.000000 0.000000
vn 1.000000 0.000000 0.000000
vn 1.000000 0.000000 0.000000
vn 0.000000 0.000000 0.000000
vn 0.000000 0.000000 0.000000
vn 1.000000 0.000000 0.000000
vn 1.000000 0.000000 0.000000
vn 1.000000 0.000000 0.000000
vn 1.000000 0.000000 0.000000
vn 1.000000 0.000000 0.000000
vn 1.000000 0.000000 0.000000
vn -0.000000 0.000000 0.000000
vn -0.000000 0.000000 0.000000
vn -1.000000 0.000000 0.000000
vn -1.000000 0.000000 0.000000
vn -1.000000 0.000000 0.000000
vn -1.000000 0.000000 0.000000
vn -1.000000 0.000000 0.000000
vn -1.000000 0.000000 0.000000
vn -0.000000 0.000000 0.000000
vn -0.000000 0.000000 0.000000
vn -1.000000 0.000000 0.000000
vn -1.000000 0.000000 0.000000
vn -1.000000 0.000000 0.000000
vn -1.000000 0.000000 0.000000
vn -1.000000 0.000000 0.000000
vn -1.000000 0.000000 0.000000
vn -1.000000 0.000000 0.000000
vn -1.000000 0.000000 0.000000
vn -1.000000 0.000000 0.000000
vn -1.000000 0.000000 0.000000
vn 0.000000 -1.000000 0.000000
vn 0.000000 -1.000000 0.000000
vn 0.000000 -1.000000 0.000000
vn 0.000000 -1.000000 0.000000
vn 1.000000 0.000000 0.000000
vn 1.000000 0.000000 0.000000
vn 1.000000 0.000000 0.000000
vn 1.000000 0.000000 0.000000
vn 0.000000 1.000000 0.000000
vn 0.000000 1.000000 0.000000
vn 0.000000 1.000000 0.000000
vn 0.000000 1.000000 0.000000
vn 0.000000 1.000000 0.000000
vn 0.000000 1.000000 0.000000
vn 0.000000 1.000000 0.000000
vn 0.000000 1.000000 0.000000
vn 1.000000 0.000000 0.000000
vn 1.000000 0.000000 0.000000
vn 1.000000 0.000000 0.000000
vn 1.000000 0.000000 0.000000
vn 0.000000 -1.000000 0.000000
vn 0.000000 -1.000000 0.000000
vn 0.000000 -1.000000 0.000000
vn 0.000000 -1.000000 0.000000
vn -1.000000 0.000000 0.000000
vn -1.000000 0.000000 0.000000
vn 0.000000 0.000000 1.000000
vn 0.000000 0.000000 1.000000
vn 0.000000 0.000000 1.000000
vn 0.000000 0.000000 1.000000
vn 0.000000 -1.000000 0.000000
vn 0.000000 -1.000000 0.000000
vn 0.000000 -1.000000 0.000000
vn 0.000000 -1.000000 0.000000
vn 0.000000 0.000000 -1.000000
vn 0.000000 0.000000 -1.000000
vn 0.000000 0.000000 -1.000000
vn 0.000000 0.000000 -1.000000
vn 0.000000 1.000000 0.000000
vn 0.000000 1.000000 0.000000
vn 0.000000 1.000000 0.000000
vn 0.000000 1.000000 0.000000
vn 0.000000 0.000000 -1.000000
vn 0.000000 0.000000 -1.000000
vn 0.000000 0.000000 -1.000000
vn 0.000000 0.000000 -1.000000
vn 0.000000 -1.000000 0.000000
vn 0.000000 -1.000000 0.000000
vn 0.000000 -1.000000 0.000000
vn 0.000000 -1.000000 0.000000
vn 0.000000 0.000000 1.000000
vn 0.000000 0.000000 1.000000
vn 0.000000 0.000000 1.000000
vn 0.000000 0.000000 1.000000
vn 0.000000 1.000000 0.000000
vn 0.000000 1.000000 0.000000
vn 0.000000 1.000000 0.000000
vn 0.000000 1.000000 0.000000
s off
g pCube1
usemtl initialShadingGroup
f 17/15/1 18/25/2 20/19/3 19/1/4 15/2/5 16/3/6 14/4/7 13/5/8
f 1/6/9 3/21/10 8/16/11 7/7/12
f 2/10/13 1/8/14 13/31/15 14/9/16
f 3/21/17 2/10/18 5/12/19 4/22/20
f 4/22/21 6/11/22 12/32/23 11/17/24
f 6/26/25 5/12/26 16/20/27 15/13/28
f 7/14/29 9/23/30 18/25/31 17/15/32
f 9/23/33 8/16/34 11/17/35 10/24/36
f 10/24/37 12/18/38 19/1/39 20/19/40
f 78/89/41 77/90/42 79/91/43 80/92/44
f 46/57/45 45/58/46 47/59/47 48/60/48
f 82/93/49 81/94/50 83/95/51 84/96/52
f 86/97/53 85/98/54 87/99/55 88/100/56
f 90/101/57 89/102/58 91/103/59 92/104/60
f 1/8/61 2/10/62 3/21/63
f 4/22/64 5/12/65 6/26/66
f 7/7/67 8/16/68 9/23/69
f 10/24/70 11/17/71 12/32/72
s 1
f 2/10/73 14/9/74 21/34/75 22/33/76
f 14/9/74 16/20/77 23/35/78 21/34/75
f 16/20/77 5/12/79 24/36/80 23/35/78
f 5/12/79 2/10/73 22/33/76 24/36/80
s 2
f 3/21/81 4/22/82 25/38/83 26/37/84
f 4/22/82 11/17/85 27/39/86 25/38/83
f 11/17/85 8/16/87 28/40/88 27/39/86
f 8/16/87 3/21/81 26/37/84 28/40/88
s 3
f 9/23/89 10/24/90 29/42/91 30/41/92
f 10/24/90 20/19/93 31/43/94 29/42/91
f 20/19/93 18/25/95 32/44/96 31/43/94
f 18/25/95 9/23/89 30/41/92 32/44/96
s 4
f 6/26/97 15/13/98 33/46/99 34/45/100
f 15/13/98 19/27/101 35/47/102 33/46/99
f 19/27/101 12/28/103 36/48/104 35/47/102
f 12/28/103 6/26/97 34/45/100 36/48/104
s 5
f 7/29/105 17/30/106 37/50/107 38/49/108
f 17/30/106 13/31/109 39/51/110 37/50/107
f 13/31/109 1/8/111 40/52/112 39/51/110
f 1/8/111 7/29/105 38/49/108 40/52/112
s 6
f 22/33/113 21/34/114 41/54/115 42/53/116
s off
f 21/34/117 23/35/118 43/55/119 41/54/120
s 7
f 23/35/121 24/36/122 44/56/123 43/55/124
s off
f 24/36/125 22/33/126 42/53/127 44/56/128
f 26/37/129 25/38/130 45/58/131 46/57/132
f 25/38/133 27/39/134 47/59/135 45/58/136
f 27/39/137 28/40/138 48/60/139 47/59/140
f 28/40/141 26/37/142 46/57/143 48/60/144
f 30/41/145 29/42/146 49/62/147 50/61/148
s 8
f 29/42/149 31/43/150 51/63/151 49/62/152
s off
f 31/43/153 32/44/154 52/64/155 51/63/156
s 9
f 32/44/157 30/41/158 50/61/159 52/64/160
s off
f 34/45/161 33/46/162 53/66/163 54/65/164
f 33/46/165 35/47/166 55/67/167 53/66/168
f 35/47/169 36/48/170 56/68/171 55/67/172
f 36/48/173 34/45/174 54/65/175 56/68/176
f 38/49/177 37/50/178 57/70/179 58/69/180
f 37/50/181 39/51/182 59/71/183 57/70/184
f 39/51/185 40/52/186 60/72/187 59/71/188
f 40/52/189 38/49/190 58/69/191 60/72/192
s 6
f 42/53/116 41/54/115 61/74/193 62/73/194
s off
f 41/54/195 43/55/196 63/75/197 61/74/198
s 7
f 43/55/124 44/56/123 64/76/199 63/75/200
s off
f 44/56/201 42/53/202 62/73/203 64/76/204
f 50/61/205 49/62/206 65/78/207 66/77/208
s 8
f 49/62/152 51/63/151 67/79/209 65/78/210
s off
f 51/63/211 52/64/212 68/80/213 67/79/214
s 9
f 52/64/160 50/61/159 66/77/215 68/80/216
s off
f 54/65/217 53/66/218 69/82/219 70/81/220
f 53/66/221 55/67/222 71/83/223 69/82/224
f 55/67/225 56/68/226 72/84/227 71/83/228
f 56/68/229 54/65/230 70/81/231 72/84/232
f 58/69/233 57/70/234 73/86/235 74/85/236
f 57/70/237 59/71/238 75/87/239 73/86/240
f 59/71/241 60/72/242 76/88/243 75/87/244
f 60/72/245 58/69/246 74/85/247 76/88/248
f 62/73/249 61/74/250 77/90/251 78/89/252
f 61/74/253 63/75/254 79/91/255 77/90/256
f 63/75/257 64/76/258 80/92/259 79/91/260
f 64/76/261 62/73/262 78/89/263 80/92/264
f 66/77/265 65/78/266 81/94/267 82/93/268
f 65/78/269 67/79/270 83/95/271 81/94/272
f 67/79/273 68/80/274 84/96/275 83/95/276
s 9
f 68/80/216 66/77/215 82/93/277 84/96/278
s off
f 70/81/279 69/82/280 85/98/281 86/97/282
f 69/82/283 71/83/284 87/99/285 85/98/286
f 71/83/287 72/84/288 88/100/289 87/99/290
f 72/84/291 70/81/292 86/97/293 88/100/294
f 74/85/295 73/86/296 89/102/297 90/101/298
f 73/86/299 75/87/300 91/103/301 89/102/302
f 75/87/303 76/88/304 92/104/305 91/103/306
f 76/88/307 74/85/308 90/101/309 92/104/310
