# This file uses centimeters as units for non-parametric coordinates.

mtllib Key Card.mtl
g default
v -0.663134 0.037132 1.104864
v 0.663134 0.037132 1.104864
v -0.663134 0.081469 1.104864
v 0.663134 0.081469 1.104864
v -0.663134 0.081469 -1.104864
v 0.663134 0.081469 -1.104864
v -0.663134 0.037132 -1.104864
v 0.663134 0.037132 -1.104864
v -0.309073 0.081469 0.877652
v 0.309073 0.081469 0.877652
v 0.236418 0.081469 0.752627
v -0.309073 0.081469 0.752627
v -0.309073 0.037132 0.753648
v 0.236418 0.037132 0.753648
v 0.309073 0.037132 0.878673
v -0.309073 0.037132 0.878673
v -0.658829 0.037132 1.104864
v -0.234884 0.037132 0.878673
v -0.234884 0.081469 0.877652
v -0.658829 0.081469 1.104864
v 0.655189 0.081469 1.104864
v 0.233586 0.081469 0.877652
v 0.233586 0.037132 0.878673
v 0.655189 0.037132 1.104864
v 0.663134 0.081469 -1.096914
v 0.309073 0.081469 0.753076
v 0.309073 0.037132 0.754098
v 0.663134 0.037132 -1.096914
v -0.656275 0.037132 -1.104864
v -0.233973 0.037132 0.753648
v -0.233973 0.081469 0.752627
v -0.656275 0.081469 -1.104864
vt 0.375000 0.000000
vt 0.625000 0.000000
vt 0.375000 0.250000
vt 0.625000 0.250000
vt 0.375000 0.500000
vt 0.625000 0.500000
vt 0.375000 0.750000
vt 0.625000 0.750000
vt 0.375000 1.000000
vt 0.625000 1.000000
vt 0.875000 0.000000
vt 0.875000 0.250000
vt 0.125000 0.000000
vt 0.125000 0.250000
vt 0.375000 0.250000
vt 0.625000 0.250000
vt 0.625000 0.500000
vt 0.375000 0.500000
vt 0.375000 0.750000
vt 0.625000 0.750000
vt 0.625000 1.000000
vt 0.375000 1.000000
vt 0.375811 0.000000
vt 0.375811 1.000000
vt 0.375811 1.000000
vt 0.375811 0.250000
vt 0.375811 0.250000
vt 0.623502 0.250000
vt 0.623502 0.250000
vt 0.623502 1.000000
vt 0.623502 0.000000
vt 0.623502 1.000000
vt 0.625000 0.499101
vt 0.874101 0.250000
vt 0.625000 0.499101
vt 0.625000 0.750899
vt 0.625000 0.750899
vt 0.874101 0.000000
vt 0.376293 0.750000
vt 0.376293 0.750000
vt 0.376293 0.500000
vt 0.376293 0.500000
vn 0.000000 0.000000 1.000000
vn 0.000000 0.000000 1.000000
vn 0.000000 0.000000 1.000000
vn 0.000000 0.000000 1.000000
vn 0.000000 0.000000 -1.000000
vn 0.000000 0.000000 -1.000000
vn 0.000000 0.000000 -1.000000
vn 0.000000 0.000000 -1.000000
vn 1.000000 0.000000 0.000000
vn 1.000000 0.000000 0.000000
vn 1.000000 0.000000 0.000000
vn 1.000000 0.000000 0.000000
vn -1.000000 0.000000 0.000000
vn -1.000000 0.000000 0.000000
vn -1.000000 0.000000 0.000000
vn -1.000000 0.000000 0.000000
vn -0.000000 1.000000 -0.000000
vn -0.000000 1.000000 -0.000000
vn 0.000000 1.000000 0.000000
vn 0.000000 1.000000 0.000000
vn -0.000000 1.000000 0.000000
vn -0.000000 1.000000 0.000000
vn 0.000000 1.000000 0.000000
vn -0.000000 1.000000 0.000000
vn -0.000000 1.000000 0.000000
vn -0.000000 1.000000 0.000000
vn -0.000000 1.000000 0.000000
vn 0.000000 1.000000 0.000000
vn 0.000000 1.000000 -0.000000
vn 0.000000 1.000000 -0.000000
vn 0.000000 -1.000000 0.000000
vn -0.000000 -1.000000 0.000000
vn -0.000000 -1.000000 0.000000
vn -0.000000 -1.000000 0.000000
vn -0.000000 -1.000000 0.000000
vn 0.000000 -1.000000 0.000000
vn -0.000000 -1.000000 -0.000000
vn -0.000000 -1.000000 -0.000000
vn 0.000000 -1.000000 -0.000000
vn 0.000000 -1.000000 -0.000000
vn -0.000000 -1.000000 -0.000000
vn -0.000000 -1.000000 -0.000000
vn 0.000000 -1.000000 -0.000000
vn 0.000000 -1.000000 -0.000000
vn -1.000000 -0.000000 0.000000
vn -1.000000 -0.000000 0.000000
vn -0.864487 0.011576 0.502522
vn -0.864615 0.011571 0.502301
vn 0.000000 0.023030 0.999735
vn 0.000000 0.023030 0.999735
vn 0.000000 0.023030 0.999735
vn 0.000000 0.023030 0.999735
vn 1.000000 0.000000 0.000000
vn 1.000000 0.000000 0.000000
vn 1.000000 0.000000 0.000000
vn 1.000000 0.000000 0.000000
vn -0.000000 -0.023028 -0.999735
vn -0.000000 -0.023028 -0.999735
vn 0.000000 -0.023028 -0.999735
vn 0.000000 -0.023028 -0.999735
vn 0.000000 0.000000 1.000000
vn 0.000000 0.000000 1.000000
vn -0.000000 -0.023028 -0.999735
vn -0.000000 -0.023028 -0.999735
vn 0.000000 -0.023028 -0.999735
vn 0.000000 -0.023028 -0.999735
vn 0.000000 0.000000 1.000000
vn 0.000000 0.000000 1.000000
vn 0.000000 1.000000 0.000000
vn 0.000000 1.000000 0.000000
vn -0.006189 0.023029 0.999716
vn -0.006189 0.023029 0.999716
vn 0.000000 -1.000000 0.000000
vn 0.000000 -1.000000 0.000000
vn 1.000000 0.000000 0.000000
vn 1.000000 0.000000 0.000000
vn 0.000000 0.000000 -1.000000
vn 0.000000 0.000000 -1.000000
vn 0.000000 0.023030 0.999735
vn 0.000000 0.023030 0.999735
s 1
g pCube1
usemtl initialShadingGroup
f 20/27/1 17/23/2 24/31/3 21/28/4
s 2
f 32/42/5 29/39/6 7/7/7 5/5/8
s 3
f 4/4/9 2/2/10 28/38/11 25/34/12
s off
f 7/13/13 1/1/14 3/3/15 5/14/16
s 4
f 19/26/17 20/27/18 21/28/19 22/29/20
f 10/16/21 4/4/22 25/33/23 26/35/24
f 31/41/25 32/42/26 5/5/27 12/18/28
f 12/18/28 5/5/27 3/3/29 9/15/30
s 6
f 13/19/31 7/7/32 29/39/33 30/40/34
f 27/36/35 28/37/36 2/10/37 15/21/38
f 23/30/39 24/32/40 17/24/41 18/25/42
f 16/22/43 1/9/44 7/7/32 13/19/31
s 8
f 15/21/45 10/16/46 26/35/47 27/36/48
s 9
f 30/40/49 31/41/50 12/18/51 13/19/52
s off
f 13/19/53 12/18/54 9/15/55 16/22/56
s 10
f 18/25/57 19/26/58 22/29/59 23/30/60
s 1
f 3/3/61 1/1/62 17/23/2 20/27/1
s 6
f 17/24/41 1/9/44 16/22/43 18/25/42
s 10
f 16/22/63 9/15/64 19/26/58 18/25/57
s 4
f 9/15/30 3/3/29 20/27/18 19/26/17
f 21/28/19 4/4/22 10/16/21 22/29/20
s 10
f 22/29/59 10/16/65 15/21/66 23/30/60
s 6
f 15/21/38 2/10/37 24/32/40 23/30/39
s 1
f 24/31/3 2/2/67 4/4/68 21/28/4
s 4
f 25/33/23 6/6/69 11/17/70 26/35/24
s 8
f 26/35/47 11/17/71 14/20/72 27/36/48
s 6
f 14/20/73 8/8/74 28/37/36 27/36/35
s 3
f 28/38/11 8/11/75 6/12/76 25/34/12
s 2
f 6/6/77 8/8/78 29/39/6 32/42/5
s 6
f 29/39/33 8/8/74 14/20/73 30/40/34
s 9
f 14/20/79 11/17/80 31/41/50 30/40/49
s 4
f 11/17/70 6/6/69 32/42/26 31/41/25
