# This file uses centimeters as units for non-parametric coordinates.

mtllib Test Tube Holder.mtl
g default
v -2.399248 0.095874 0.217341
v 2.399248 0.095874 0.217341
v -2.399248 0.387730 0.217341
v 2.399248 0.387730 0.217341
v -2.399248 0.387730 -0.217341
v 2.399248 0.387730 -0.217341
v -2.399248 0.095874 -0.217341
v 2.399248 0.095874 -0.217341
v -2.208183 0.387730 0.217341
v -2.208183 0.387730 -0.217341
v -2.208183 0.095874 -0.217341
v -2.208183 0.095874 0.217341
v 2.217093 0.387730 0.217341
v 2.217093 0.387730 -0.217341
v 2.217093 0.095874 -0.217341
v 2.217093 0.095874 0.217341
v -2.399248 2.288615 0.217341
v -2.208183 2.288615 0.217341
v -2.208183 2.288615 -0.217341
v -2.399248 2.288615 -0.217341
v 2.217093 2.288615 0.217341
v 2.399248 2.288615 0.217341
v 2.399248 2.288615 -0.217341
v 2.217093 2.288615 -0.217341
v -2.399248 2.503017 0.217341
v -2.208183 2.503017 0.217341
v -2.208183 2.503017 -0.217341
v -2.399248 2.503017 -0.217341
v 2.217093 2.503017 0.217341
v 2.399248 2.503017 0.217341
v 2.399248 2.503017 -0.217341
v 2.217093 2.503017 -0.217341
v -2.399248 2.816351 0.217341
v -2.208183 2.816351 0.217341
v -2.208183 2.816351 -0.217341
v -2.399248 2.816351 -0.217341
v 2.217093 2.816352 0.217341
v 2.399248 2.816352 0.217341
v 2.399248 2.816352 -0.217341
v 2.217093 2.816352 -0.217341
v -1.716485 2.288615 -0.217341
v -1.716485 2.503017 -0.217341
v -1.716485 2.503017 0.217341
v -1.716485 2.288615 0.217341
v -1.224788 2.288615 -0.217341
v -1.224788 2.503017 -0.217341
v -1.224788 2.503017 0.217341
v -1.224788 2.288615 0.217341
v -0.733091 2.288615 -0.217341
v -0.733091 2.503017 -0.217341
v -0.733091 2.503017 0.217341
v -0.733091 2.288615 0.217341
v -0.241393 2.288615 -0.217341
v -0.241393 2.503017 -0.217341
v -0.241393 2.503017 0.217341
v -0.241393 2.288615 0.217341
v 0.250304 2.288615 -0.217341
v 0.250304 2.503017 -0.217341
v 0.250304 2.503017 0.217341
v 0.250304 2.288615 0.217341
v 0.742001 2.288615 -0.217341
v 0.742001 2.503017 -0.217341
v 0.742001 2.503017 0.217341
v 0.742001 2.288615 0.217341
v 1.233699 2.288615 -0.217341
v 1.233699 2.503017 -0.217341
v 1.233699 2.503017 0.217341
v 1.233699 2.288615 0.217341
v 1.725396 2.288615 -0.217341
v 1.725396 2.503017 -0.217341
v 1.725396 2.503017 0.217341
v 1.725396 2.288615 0.217341
v -1.638633 2.503017 -0.148517
v -1.638633 2.503017 0.148517
v -1.302640 2.503017 0.148517
v -1.302640 2.503017 -0.148517
v -1.638633 2.288615 0.148517
v -1.638633 2.288615 -0.148517
v -1.302640 2.288615 -0.148517
v -1.302640 2.288615 0.148517
v -0.655239 2.503017 -0.148517
v -0.655239 2.503017 0.148517
v -0.319245 2.503017 0.148517
v -0.319245 2.503017 -0.148517
v -0.655239 2.288615 0.148517
v -0.655239 2.288615 -0.148517
v -0.319245 2.288615 -0.148517
v -0.319245 2.288615 0.148517
v 0.328156 2.503017 -0.148517
v 0.328156 2.503017 0.148517
v 0.664149 2.503017 0.148517
v 0.664149 2.503017 -0.148517
v 0.328156 2.288615 0.148517
v 0.328156 2.288615 -0.148517
v 0.664149 2.288615 -0.148517
v 0.664149 2.288615 0.148517
v 1.311551 2.503017 -0.148517
v 1.311551 2.503017 0.148517
v 1.647544 2.503017 0.148517
v 1.647544 2.503017 -0.148517
v 1.311551 2.288615 0.148517
v 1.311551 2.288615 -0.148517
v 1.647544 2.288615 -0.148517
v 1.647544 2.288615 0.148517
vt 0.375000 0.000000
vt 0.625000 0.000000
vt 0.375000 0.250000
vt 0.625000 0.250000
vt 0.375000 0.500000
vt 0.625000 0.500000
vt 0.375000 0.750000
vt 0.625000 0.750000
vt 0.375000 1.000000
vt 0.625000 1.000000
vt 0.875000 0.000000
vt 0.875000 0.250000
vt 0.125000 0.000000
vt 0.125000 0.250000
vt 0.384954 0.250000
vt 0.384954 0.500000
vt 0.384954 0.750000
vt 0.384954 0.000000
vt 0.384954 1.000000
vt 0.615510 0.250000
vt 0.615510 0.500000
vt 0.615510 0.750000
vt 0.615510 0.000000
vt 0.615510 1.000000
vt 0.375000 0.250000
vt 0.384954 0.250000
vt 0.384954 0.500000
vt 0.375000 0.500000
vt 0.615510 0.250000
vt 0.625000 0.250000
vt 0.625000 0.500000
vt 0.615510 0.500000
vt 0.375000 0.250000
vt 0.384954 0.250000
vt 0.384954 0.500000
vt 0.375000 0.500000
vt 0.615510 0.250000
vt 0.625000 0.250000
vt 0.625000 0.500000
vt 0.615510 0.500000
vt 0.375000 0.250000
vt 0.384954 0.250000
vt 0.384954 0.500000
vt 0.375000 0.500000
vt 0.615510 0.250000
vt 0.625000 0.250000
vt 0.625000 0.500000
vt 0.615510 0.500000
vt 0.410572 0.500000
vt 0.410572 0.500000
vt 0.410572 0.250000
vt 0.410572 0.250000
vt 0.436189 0.500000
vt 0.436189 0.500000
vt 0.436189 0.250000
vt 0.436189 0.250000
vt 0.461806 0.500000
vt 0.461806 0.500000
vt 0.461806 0.250000
vt 0.461806 0.250000
vt 0.487423 0.500000
vt 0.487423 0.500000
vt 0.487423 0.250000
vt 0.487423 0.250000
vt 0.513041 0.500000
vt 0.513041 0.500000
vt 0.513041 0.250000
vt 0.513041 0.250000
vt 0.538658 0.500000
vt 0.538658 0.500000
vt 0.538658 0.250000
vt 0.538658 0.250000
vt 0.564275 0.500000
vt 0.564275 0.500000
vt 0.564275 0.250000
vt 0.564275 0.250000
vt 0.589893 0.500000
vt 0.589893 0.500000
vt 0.589893 0.250000
vt 0.589893 0.250000
vt 0.410572 0.500000
vt 0.410572 0.250000
vt 0.436189 0.250000
vt 0.436189 0.500000
vt 0.410572 0.250000
vt 0.410572 0.500000
vt 0.436189 0.500000
vt 0.436189 0.250000
vt 0.461806 0.500000
vt 0.461806 0.250000
vt 0.487423 0.250000
vt 0.487423 0.500000
vt 0.461806 0.250000
vt 0.461806 0.500000
vt 0.487423 0.500000
vt 0.487423 0.250000
vt 0.513041 0.500000
vt 0.513041 0.250000
vt 0.538658 0.250000
vt 0.538658 0.500000
vt 0.513041 0.250000
vt 0.513041 0.500000
vt 0.538658 0.500000
vt 0.538658 0.250000
vt 0.564275 0.500000
vt 0.564275 0.250000
vt 0.589893 0.250000
vt 0.589893 0.500000
vt 0.564275 0.250000
vt 0.564275 0.500000
vt 0.589893 0.500000
vt 0.589893 0.250000
vn 0.000000 0.000000 1.000000
vn 0.000000 0.000000 1.000000
vn 0.000000 0.000000 1.000000
vn 0.000000 0.000000 1.000000
vn 0.000000 1.000000 0.000000
vn 0.000000 1.000000 0.000000
vn 0.000000 1.000000 0.000000
vn 0.000000 1.000000 0.000000
vn 0.000000 0.000000 -1.000000
vn 0.000000 0.000000 -1.000000
vn 0.000000 0.000000 -1.000000
vn 0.000000 0.000000 -1.000000
vn 0.000000 -1.000000 0.000000
vn 0.000000 -1.000000 0.000000
vn 0.000000 -1.000000 0.000000
vn 0.000000 -1.000000 0.000000
vn 1.000000 0.000000 0.000000
vn 1.000000 0.000000 0.000000
vn 1.000000 0.000000 0.000000
vn 1.000000 0.000000 0.000000
vn -1.000000 0.000000 0.000000
vn -1.000000 0.000000 0.000000
vn -1.000000 0.000000 0.000000
vn -1.000000 0.000000 0.000000
vn 0.000000 1.000000 0.000000
vn 0.000000 1.000000 0.000000
vn 0.000000 1.000000 0.000000
vn 0.000000 1.000000 0.000000
vn 0.000000 0.000000 -1.000000
vn 0.000000 0.000000 -1.000000
vn 0.000000 -1.000000 0.000000
vn 0.000000 -1.000000 0.000000
vn 0.000000 0.000000 1.000000
vn 0.000000 0.000000 1.000000
vn 0.000000 1.000000 0.000000
vn 0.000000 1.000000 0.000000
vn 0.000000 1.000000 0.000000
vn 0.000000 1.000000 0.000000
vn 0.000000 0.000000 -1.000000
vn 0.000000 0.000000 -1.000000
vn 0.000000 -1.000000 0.000000
vn 0.000000 -1.000000 0.000000
vn 0.000000 0.000000 1.000000
vn 0.000000 0.000000 1.000000
vn 0.000000 0.000000 1.000000
vn 0.000000 0.000000 1.000000
vn 1.000000 0.000000 0.000000
vn 1.000000 0.000000 0.000000
vn 1.000000 0.000000 0.000000
vn 1.000000 0.000000 0.000000
vn 0.000000 0.000000 -1.000000
vn 0.000000 0.000000 -1.000000
vn -1.000000 0.000000 0.000000
vn -1.000000 0.000000 0.000000
vn 0.000000 0.000000 1.000000
vn 0.000000 0.000000 1.000000
vn 1.000000 0.000000 0.000000
vn 1.000000 0.000000 0.000000
vn 0.000000 0.000000 -1.000000
vn 0.000000 0.000000 -1.000000
vn -1.000000 0.000000 0.000000
vn -1.000000 0.000000 0.000000
vn -1.000000 0.000000 0.000000
vn -1.000000 0.000000 0.000000
vn 0.000000 0.000000 1.000000
vn 0.000000 0.000000 1.000000
vn 0.000000 0.000000 -1.000000
vn 0.000000 0.000000 -1.000000
vn -1.000000 0.000000 0.000000
vn -1.000000 0.000000 0.000000
vn 0.000000 0.000000 1.000000
vn 0.000000 0.000000 1.000000
vn 1.000000 0.000000 0.000000
vn 1.000000 0.000000 0.000000
vn 0.000000 0.000000 -1.000000
vn 0.000000 0.000000 -1.000000
vn 0.000000 0.000000 1.000000
vn 0.000000 0.000000 1.000000
vn 1.000000 0.000000 0.000000
vn 1.000000 0.000000 0.000000
vn 1.000000 0.000000 0.000000
vn 1.000000 0.000000 0.000000
vn 0.000000 0.000000 -1.000000
vn 0.000000 0.000000 -1.000000
vn -1.000000 0.000000 0.000000
vn -1.000000 0.000000 0.000000
vn 0.000000 0.000000 1.000000
vn 0.000000 0.000000 1.000000
vn 1.000000 0.000000 0.000000
vn 1.000000 0.000000 0.000000
vn 0.000000 0.000000 -1.000000
vn 0.000000 0.000000 -1.000000
vn -1.000000 0.000000 0.000000
vn -1.000000 0.000000 0.000000
vn -1.000000 0.000000 0.000000
vn -1.000000 0.000000 0.000000
vn -0.000000 0.000000 -1.000000
vn -0.000000 0.000000 -1.000000
vn 0.000000 0.000000 -1.000000
vn 0.000000 0.000000 -1.000000
vn 0.000000 1.000000 -0.000000
vn 0.000000 1.000000 0.000000
vn 0.000000 1.000000 0.000000
vn 0.000000 1.000000 0.000000
vn -0.000000 0.000000 1.000000
vn -0.000000 0.000000 1.000000
vn 0.000000 0.000000 1.000000
vn 0.000000 0.000000 1.000000
vn 0.000000 -1.000000 0.000000
vn 0.000000 -1.000000 -0.000000
vn 0.000001 -1.000000 0.000000
vn 0.000001 -1.000000 0.000000
vn 0.000000 0.000000 -1.000000
vn 0.000000 0.000000 -1.000000
vn 0.000000 0.000000 -1.000000
vn 0.000000 0.000000 -1.000000
vn -0.000001 1.000000 0.000000
vn -0.000001 1.000000 0.000000
vn -0.000000 1.000000 0.000000
vn -0.000000 1.000000 -0.000000
vn 0.000000 0.000000 1.000000
vn 0.000000 0.000000 1.000000
vn 0.000000 0.000000 1.000000
vn 0.000000 0.000000 1.000000
vn 0.000000 -1.000000 0.000000
vn 0.000000 -1.000000 0.000000
vn 0.000000 -1.000000 0.000000
vn 0.000000 -1.000000 0.000000
vn 0.000000 0.000000 -1.000000
vn 0.000000 0.000000 -1.000000
vn 0.000000 0.000000 1.000000
vn 0.000000 0.000000 1.000000
vn 0.000000 0.000000 -1.000000
vn 0.000000 0.000000 -1.000000
vn -0.000000 1.000000 -0.000000
vn -0.000000 1.000000 0.000000
vn -0.000000 1.000000 0.000000
vn -0.000000 1.000000 0.000000
vn 0.000000 0.000000 1.000000
vn 0.000000 0.000000 1.000000
vn 0.000000 -1.000000 0.000000
vn 0.000000 -1.000000 0.000000
vn 0.000000 -1.000000 -0.000000
vn 0.000000 -1.000000 0.000000
vn -0.000000 0.000000 -1.000000
vn -0.000000 0.000000 -1.000000
vn -0.000000 0.000000 1.000000
vn -0.000000 0.000000 1.000000
vn 0.000000 0.000000 -1.000000
vn 0.000000 0.000000 -1.000000
vn 0.000000 1.000000 0.000000
vn 0.000000 1.000000 0.000000
vn 0.000000 1.000000 0.000000
vn 0.000000 1.000000 -0.000000
vn 0.000000 0.000000 1.000000
vn 0.000000 0.000000 1.000000
vn 0.000000 -1.000000 0.000000
vn 0.000000 -1.000000 -0.000000
vn 0.000000 -1.000000 -0.000000
vn 0.000000 -1.000000 0.000000
vn 0.000000 0.000000 -1.000000
vn 0.000000 0.000000 -1.000000
vn 0.000000 0.000000 1.000000
vn 0.000000 0.000000 1.000000
vn 0.000000 0.000000 -1.000000
vn 0.000000 0.000000 -1.000000
vn 0.000000 1.000000 -0.000000
vn 0.000000 1.000000 0.000000
vn 0.000000 1.000000 0.000000
vn 0.000000 1.000000 -0.000000
vn 0.000000 0.000000 1.000000
vn 0.000000 0.000000 1.000000
vn 0.000000 -1.000000 0.000000
vn 0.000000 -1.000000 -0.000000
vn 0.000000 -1.000000 -0.000000
vn 0.000000 -1.000000 0.000000
vn 0.000000 1.000000 0.000001
vn 0.000000 1.000000 -0.000001
vn 0.000000 1.000000 0.000001
vn 0.000000 1.000000 -0.000001
vn 0.000000 -1.000000 0.000000
vn 0.000000 -1.000000 0.000001
vn 0.000000 -1.000000 0.000000
vn 0.000000 -1.000000 0.000001
vn 0.000000 1.000000 0.000000
vn 0.000000 1.000000 0.000000
vn 0.000000 1.000000 0.000000
vn 0.000000 1.000000 0.000000
vn 0.000000 -1.000000 -0.000001
vn 0.000000 -1.000000 0.000001
vn 0.000000 -1.000000 -0.000001
vn 0.000000 -1.000000 0.000001
vn 0.000000 1.000000 0.000000
vn 0.000000 1.000000 -0.000000
vn 0.000000 1.000000 0.000000
vn 0.000000 1.000000 -0.000000
vn 0.000000 -1.000000 -0.000001
vn 0.000000 -1.000000 0.000000
vn 0.000000 -1.000000 -0.000001
vn 0.000000 -1.000000 0.000000
vn 0.000000 1.000000 0.000001
vn 0.000000 1.000000 -0.000001
vn 0.000000 1.000000 0.000001
vn 0.000000 1.000000 -0.000001
vn 0.000000 -1.000000 -0.000001
vn 0.000000 -1.000000 0.000000
vn 0.000000 -1.000000 -0.000001
vn 0.000000 -1.000000 0.000000
vn 0.000000 0.000000 -1.000000
vn 0.000000 0.000000 -1.000000
vn 0.000000 0.000000 -1.000000
vn 0.000000 0.000000 -1.000000
vn -1.000000 0.000000 0.000000
vn -1.000000 0.000000 0.000000
vn -1.000000 0.000000 0.000000
vn -1.000000 0.000000 0.000000
vn 0.000000 0.000000 1.000000
vn 0.000000 0.000000 1.000000
vn 0.000000 0.000000 1.000000
vn 0.000000 0.000000 1.000000
vn 1.000000 0.000000 0.000000
vn 1.000000 0.000000 0.000000
vn 1.000000 0.000000 0.000000
vn 1.000000 0.000000 0.000000
vn 0.000000 0.000000 -1.000000
vn 0.000000 0.000000 -1.000000
vn 0.000000 0.000000 -1.000000
vn 0.000000 0.000000 -1.000000
vn -1.000000 0.000000 0.000000
vn -1.000000 0.000000 0.000000
vn -1.000000 0.000000 0.000000
vn -1.000000 0.000000 0.000000
vn 0.000000 0.000000 1.000000
vn 0.000000 0.000000 1.000000
vn 0.000000 0.000000 1.000000
vn 0.000000 0.000000 1.000000
vn 1.000000 0.000000 0.000000
vn 1.000000 0.000000 0.000000
vn 1.000000 0.000000 0.000000
vn 1.000000 0.000000 0.000000
vn -0.000000 0.000000 -1.000000
vn -0.000000 0.000000 -1.000000
vn -0.000000 0.000000 -1.000000
vn -0.000000 0.000000 -1.000000
vn -1.000000 0.000000 0.000000
vn -1.000000 0.000000 0.000000
vn -1.000000 0.000000 0.000000
vn -1.000000 0.000000 0.000000
vn -0.000000 0.000000 1.000000
vn -0.000000 0.000000 1.000000
vn -0.000000 0.000000 1.000000
vn -0.000000 0.000000 1.000000
vn 1.000000 0.000000 0.000000
vn 1.000000 0.000000 0.000000
vn 1.000000 0.000000 0.000000
vn 1.000000 0.000000 0.000000
vn 0.000000 0.000000 -1.000000
vn 0.000000 0.000000 -1.000000
vn 0.000000 0.000000 -1.000000
vn 0.000000 0.000000 -1.000000
vn -1.000000 0.000000 0.000000
vn -1.000000 0.000000 0.000000
vn -1.000000 0.000000 0.000000
vn -1.000000 0.000000 0.000000
vn 0.000000 0.000000 1.000000
vn 0.000000 0.000000 1.000000
vn 0.000000 0.000000 1.000000
vn 0.000000 0.000000 1.000000
vn 1.000000 0.000000 0.000000
vn 1.000000 0.000000 0.000000
vn 1.000000 0.000000 0.000000
vn 1.000000 0.000000 0.000000
s 1
g pCube1
usemtl initialShadingGroup
f 1/1/1 12/18/2 9/15/3 3/3/4
s off
f 33/41/5 34/42/6 35/43/7 36/44/8
s 2
f 5/5/9 10/16/10 11/17/11 7/7/12
s 3
f 7/7/13 11/17/14 12/19/15 1/9/16
s 4
f 2/2/17 8/11/18 6/12/19 4/4/20
s 5
f 7/13/21 1/1/22 3/3/23 5/14/24
s off
f 9/15/25 13/20/26 14/21/27 10/16/28
s 2
f 11/17/11 10/16/10 14/21/29 15/22/30
s 3
f 12/19/15 11/17/14 15/22/31 16/24/32
s 1
f 9/15/3 12/18/2 16/23/33 13/20/34
s off
f 37/45/35 38/46/36 39/47/37 40/48/38
s 2
f 15/22/30 14/21/29 6/6/39 8/8/40
s 3
f 16/24/32 15/22/31 8/8/41 2/10/42
s 1
f 13/20/34 16/23/33 2/2/43 4/4/44
f 3/3/4 9/15/3 18/26/45 17/25/46
s off
f 9/15/47 10/16/48 19/27/49 18/26/50
s 2
f 10/16/10 5/5/9 20/28/51 19/27/52
s 5
f 5/5/24 3/3/23 17/25/53 20/28/54
s 1
f 13/20/34 4/4/44 22/30/55 21/29/56
s 4
f 4/4/20 6/6/19 23/31/57 22/30/58
s 2
f 6/6/39 14/21/29 24/32/59 23/31/60
s off
f 14/21/61 13/20/62 21/29/63 24/32/64
s 1
f 17/25/46 18/26/45 26/34/65 25/33/66
s 2
f 19/27/52 20/28/51 28/36/67 27/35/68
s 5
f 20/28/54 17/25/53 25/33/69 28/36/70
s 1
f 21/29/56 22/30/55 30/38/71 29/37/72
s 4
f 22/30/58 23/31/57 31/39/73 30/38/74
s 2
f 23/31/60 24/32/59 32/40/75 31/39/76
s 1
f 25/33/66 26/34/65 34/42/77 33/41/78
s off
f 26/34/79 27/35/80 35/43/81 34/42/82
s 2
f 27/35/68 28/36/67 36/44/83 35/43/84
s 5
f 28/36/70 25/33/69 33/41/85 36/44/86
s 1
f 29/37/72 30/38/71 38/46/87 37/45/88
s 4
f 30/38/74 31/39/73 39/47/89 38/46/90
s 2
f 31/39/76 32/40/75 40/48/91 39/47/92
s off
f 32/40/93 29/37/94 37/45/95 40/48/96
s 6
f 69/77/97 70/78/98 32/40/99 24/32/100
s 7
f 70/78/101 71/79/102 29/37/103 32/40/104
s 8
f 71/79/105 72/80/106 21/29/107 29/37/108
s 9
f 72/80/109 69/77/110 24/32/111 21/29/112
s 6
f 19/27/113 27/35/114 42/50/115 41/49/116
s 7
f 27/35/117 26/34/118 43/51/119 42/50/120
s 8
f 26/34/121 18/26/122 44/52/123 43/51/124
s 9
f 18/26/125 19/27/126 41/49/127 44/52/128
s 6
f 41/49/116 42/50/115 46/54/129 45/53/130
s 8
f 43/51/124 44/52/123 48/56/131 47/55/132
s 6
f 45/53/130 46/54/129 50/58/133 49/57/134
s 7
f 46/54/135 47/55/136 51/59/137 50/58/138
s 8
f 47/55/132 48/56/131 52/60/139 51/59/140
s 9
f 48/56/141 45/53/142 49/57/143 52/60/144
s 6
f 49/57/134 50/58/133 54/62/145 53/61/146
s 8
f 51/59/140 52/60/139 56/64/147 55/63/148
s 6
f 53/61/146 54/62/145 58/66/149 57/65/150
s 7
f 54/62/151 55/63/152 59/67/153 58/66/154
s 8
f 55/63/148 56/64/147 60/68/155 59/67/156
s 9
f 56/64/157 53/61/158 57/65/159 60/68/160
s 6
f 57/65/150 58/66/149 62/70/161 61/69/162
s 8
f 59/67/156 60/68/155 64/72/163 63/71/164
s 6
f 61/69/162 62/70/161 66/74/165 65/73/166
s 7
f 62/70/167 63/71/168 67/75/169 66/74/170
s 8
f 63/71/164 64/72/163 68/76/171 67/75/172
s 9
f 64/72/173 61/69/174 65/73/175 68/76/176
s 6
f 65/73/166 66/74/165 70/78/98 69/77/97
s 8
f 67/75/172 68/76/171 72/80/106 71/79/105
s 7
f 42/50/120 43/51/119 74/82/177 73/81/178
f 43/51/119 47/55/136 75/83/179 74/82/177
f 47/55/136 46/54/135 76/84/180 75/83/179
f 46/54/135 42/50/120 73/81/178 76/84/180
s 9
f 44/52/128 41/49/127 78/86/181 77/85/182
f 41/49/127 45/53/142 79/87/183 78/86/181
f 45/53/142 48/56/141 80/88/184 79/87/183
f 48/56/141 44/52/128 77/85/182 80/88/184
s 7
f 50/58/138 51/59/137 82/90/185 81/89/186
f 51/59/137 55/63/152 83/91/187 82/90/185
f 55/63/152 54/62/151 84/92/188 83/91/187
f 54/62/151 50/58/138 81/89/186 84/92/188
s 9
f 52/60/144 49/57/143 86/94/189 85/93/190
f 49/57/143 53/61/158 87/95/191 86/94/189
f 53/61/158 56/64/157 88/96/192 87/95/191
f 56/64/157 52/60/144 85/93/190 88/96/192
s 7
f 58/66/154 59/67/153 90/98/193 89/97/194
f 59/67/153 63/71/168 91/99/195 90/98/193
f 63/71/168 62/70/167 92/100/196 91/99/195
f 62/70/167 58/66/154 89/97/194 92/100/196
s 9
f 60/68/160 57/65/159 94/102/197 93/101/198
f 57/65/159 61/69/174 95/103/199 94/102/197
f 61/69/174 64/72/173 96/104/200 95/103/199
f 64/72/173 60/68/160 93/101/198 96/104/200
s 7
f 66/74/170 67/75/169 98/106/201 97/105/202
f 67/75/169 71/79/102 99/107/203 98/106/201
f 71/79/102 70/78/101 100/108/204 99/107/203
f 70/78/101 66/74/170 97/105/202 100/108/204
s 9
f 68/76/176 65/73/175 102/110/205 101/109/206
f 65/73/175 69/77/110 103/111/207 102/110/205
f 69/77/110 72/80/109 104/112/208 103/111/207
f 72/80/109 68/76/176 101/109/206 104/112/208
s off
f 74/82/209 75/83/210 80/88/211 77/85/212
f 75/83/213 76/84/214 79/87/215 80/88/216
f 76/84/217 73/81/218 78/86/219 79/87/220
f 73/81/221 74/82/222 77/85/223 78/86/224
f 82/90/225 83/91/226 88/96/227 85/93/228
f 83/91/229 84/92/230 87/95/231 88/96/232
f 84/92/233 81/89/234 86/94/235 87/95/236
f 81/89/237 82/90/238 85/93/239 86/94/240
f 90/98/241 91/99/242 96/104/243 93/101/244
f 91/99/245 92/100/246 95/103/247 96/104/248
f 92/100/249 89/97/250 94/102/251 95/103/252
f 89/97/253 90/98/254 93/101/255 94/102/256
f 98/106/257 99/107/258 104/112/259 101/109/260
f 99/107/261 100/108/262 103/111/263 104/112/264
f 100/108/265 97/105/266 102/110/267 103/111/268
f 97/105/269 98/106/270 101/109/271 102/110/272
