# This file uses centimeters as units for non-parametric coordinates.

mtllib Window Frame.mtl
g default
v -3.395730 2.811248 0.232169
v -3.032640 3.105414 0.232169
v -3.395730 2.811248 -0.232169
v -3.032640 3.105414 -0.232169
v 3.032640 3.105414 0.232169
v 3.395730 2.811248 0.232169
v 3.395730 2.811248 -0.232169
v 3.032640 3.105414 -0.232169
v -3.032640 0.163458 0.232169
v -3.395730 0.457624 0.232169
v -3.395730 0.457624 -0.232169
v -3.032640 0.163458 -0.232169
v 3.395730 0.457624 0.232169
v 3.032640 0.163458 0.232169
v 3.032640 0.163458 -0.232169
v 3.395730 0.457624 -0.232169
v -2.843101 2.982833 -0.232169
v -3.181590 2.713180 -0.232169
v 2.843101 2.982833 -0.232169
v 3.181590 2.713180 -0.232169
v 3.181590 0.555692 -0.232169
v 2.843101 0.286040 -0.232169
v -2.843101 0.286040 -0.232169
v -3.181590 0.555692 -0.232169
v -2.843101 0.286040 0.232169
v -3.181590 0.555692 0.232169
v 2.843101 0.286040 0.232169
v 3.181590 0.555692 0.232169
v 3.181590 2.713180 0.232169
v 2.843101 2.982833 0.232169
v -2.843101 2.982833 0.232169
v -3.181590 2.713180 0.232169
v -3.286327 2.761146 0.305874
v -2.935805 3.042788 0.305874
v 2.935805 3.042788 0.305874
v 3.286327 2.761146 0.305874
v 3.286327 0.507727 0.305874
v 2.935805 0.226084 0.305874
v -2.935805 0.226084 0.305874
v -3.286327 0.507727 0.305874
v -2.933905 3.041559 -0.305874
v -3.284179 2.760162 -0.305874
v -3.284179 0.508710 -0.305874
v -2.933905 0.227314 -0.305874
v 2.933905 0.227314 -0.305874
v 3.284179 0.508710 -0.305874
v 3.284179 2.760162 -0.305874
v 2.933905 3.041559 -0.305874
vt 0.375000 0.024998
vt 0.385829 0.000000
vt 0.614171 -0.000000
vt 0.625000 0.524997
vt 0.375000 0.725002
vt 0.385829 0.500000
vt 0.614171 0.250000
vt 0.125000 0.024997
vt 0.375000 0.225002
vt 0.125000 0.225002
vt 0.625000 0.024997
vt 0.875000 0.024998
vt 0.875000 0.225002
vt 0.385829 1.000000
vt 0.614171 0.750000
vt 0.385829 0.250000
vt 0.375000 0.524997
vt 0.625000 0.225002
vt 0.614172 0.500000
vt 0.375000 1.000000
vt 0.385829 0.750000
vt 0.625000 1.000000
vt 0.614172 1.000000
vt 0.625000 0.725002
vt 0.375000 0.524997
vt 0.385829 0.500000
vt 0.614172 0.500000
vt 0.625000 0.524997
vt 0.625000 0.725002
vt 0.614171 0.750000
vt 0.385829 0.750000
vt 0.375000 0.725002
vt 0.375000 0.024998
vt 0.385829 0.000000
vt 0.614171 -0.000000
vt 0.625000 0.024997
vt 0.625000 0.225002
vt 0.614171 0.250000
vt 0.385829 0.250000
vt 0.375000 0.225002
vt 0.375000 0.225002
vt 0.385829 0.250000
vt 0.614171 0.250000
vt 0.625000 0.225002
vt 0.625000 0.024997
vt 0.614171 -0.000000
vt 0.385829 0.000000
vt 0.375000 0.024998
vt 0.385829 0.500000
vt 0.375000 0.524997
vt 0.375000 0.725002
vt 0.385829 0.750000
vt 0.614171 0.750000
vt 0.625000 0.725002
vt 0.625000 0.524997
vt 0.614172 0.500000
vn 0.000000 1.000000 0.000000
vn 0.000000 1.000000 0.000000
vn 0.000000 1.000000 0.000000
vn 0.000000 1.000000 0.000000
vn 0.000000 -1.000000 0.000000
vn 0.000000 -1.000000 0.000000
vn 0.000000 -1.000000 0.000000
vn 0.000000 -1.000000 0.000000
vn 1.000000 0.000000 0.000000
vn 1.000000 0.000000 0.000000
vn 1.000000 0.000000 0.000000
vn 1.000000 0.000000 0.000000
vn -1.000000 0.000000 0.000000
vn -1.000000 0.000000 0.000000
vn -1.000000 0.000000 0.000000
vn -1.000000 0.000000 0.000000
vn -0.629504 0.776997 0.000000
vn -0.629504 0.776997 0.000000
vn -0.629504 0.776997 0.000000
vn -0.629504 0.776997 0.000000
vn 0.629504 0.776997 0.000000
vn 0.629504 0.776997 0.000000
vn 0.629504 0.776997 0.000000
vn 0.629504 0.776997 0.000000
vn -0.629504 -0.776997 0.000000
vn -0.629504 -0.776997 0.000000
vn -0.629504 -0.776997 0.000000
vn -0.629504 -0.776997 0.000000
vn 0.629504 -0.776997 0.000000
vn 0.629504 -0.776997 0.000000
vn 0.629504 -0.776997 0.000000
vn 0.629504 -0.776997 0.000000
vn -0.526448 0.071110 -0.847229
vn -0.070377 0.706112 -0.704594
vn 0.006480 0.459897 -0.887949
vn -0.158738 0.022995 -0.987053
vn 0.070377 0.706112 -0.704594
vn -0.006480 0.459897 -0.887949
vn 0.526448 0.071110 -0.847229
vn 0.158738 0.022995 -0.987053
vn 0.526448 -0.071110 -0.847229
vn 0.158738 -0.022995 -0.987053
vn 0.070377 -0.706112 -0.704594
vn -0.006480 -0.459896 -0.887949
vn -0.070377 -0.706112 -0.704594
vn 0.006480 -0.459896 -0.887949
vn -0.526448 -0.071110 -0.847229
vn -0.158738 -0.022995 -0.987053
vn -0.533803 -0.072108 0.842529
vn -0.070598 -0.713231 0.697365
vn 0.006541 -0.464229 0.885691
vn -0.159758 -0.023139 0.986885
vn 0.070598 -0.713231 0.697365
vn -0.006541 -0.464229 0.885691
vn 0.533803 -0.072108 0.842529
vn 0.159758 -0.023139 0.986885
vn 0.533803 0.072108 0.842529
vn 0.159758 0.023139 0.986885
vn 0.070598 0.713231 0.697365
vn -0.006541 0.464230 0.885691
vn -0.070598 0.713231 0.697365
vn 0.006541 0.464230 0.885691
vn -0.533803 0.072108 0.842529
vn -0.159758 0.023139 0.986885
vn 0.623089 -0.782151 0.000000
vn 0.623089 -0.782151 0.000000
vn 0.623089 -0.782151 0.000000
vn 0.623089 -0.782151 0.000000
vn 0.000000 -1.000000 0.000000
vn 0.000000 -1.000000 0.000000
vn 0.000000 -1.000000 0.000000
vn 0.000000 -1.000000 0.000000
vn -0.623089 -0.782151 0.000000
vn -0.623089 -0.782151 0.000000
vn -0.623089 -0.782151 0.000000
vn -0.623089 -0.782151 0.000000
vn -1.000000 0.000000 0.000000
vn -1.000000 0.000000 0.000000
vn -1.000000 0.000000 0.000000
vn -1.000000 0.000000 0.000000
vn -0.623089 0.782151 0.000000
vn -0.623089 0.782151 0.000000
vn -0.623089 0.782151 0.000000
vn -0.623089 0.782151 0.000000
vn 0.000000 1.000000 0.000000
vn 0.000000 1.000000 0.000000
vn 0.000000 1.000000 0.000000
vn 0.000000 1.000000 0.000000
vn 0.623089 0.782151 0.000000
vn 0.623089 0.782151 0.000000
vn 0.623089 0.782151 0.000000
vn 0.623089 0.782151 0.000000
vn 1.000000 0.000000 0.000000
vn 1.000000 0.000000 0.000000
vn 1.000000 0.000000 0.000000
vn 1.000000 0.000000 0.000000
vn 0.549232 -0.077383 0.832079
vn 0.019595 -0.763594 0.645400
vn -0.019595 -0.763594 0.645400
vn -0.549232 -0.077383 0.832079
vn -0.549232 0.077383 0.832079
vn -0.019595 0.763593 0.645401
vn 0.019595 0.763593 0.645401
vn 0.549232 0.077383 0.832079
vn 0.019837 -0.770085 -0.637632
vn 0.557116 -0.078494 -0.826717
vn 0.557116 0.078494 -0.826717
vn 0.019837 0.770085 -0.637633
vn -0.019837 0.770085 -0.637633
vn -0.557116 0.078494 -0.826717
vn -0.557116 -0.078494 -0.826717
vn -0.019837 -0.770085 -0.637632
s off
g pCube1
usemtl initialShadingGroup
f 4/6/1 2/16/2 5/7/3 8/19/4
f 9/14/5 12/21/6 15/15/7 14/23/8
f 13/11/9 16/12/10 7/13/11 6/18/12
f 11/8/13 10/1/14 1/9/15 3/10/16
f 1/9/17 2/16/18 4/6/19 3/17/20
f 5/7/21 6/18/22 7/4/23 8/19/24
f 9/14/25 10/20/26 11/5/27 12/21/28
f 13/22/29 14/23/30 15/15/31 16/24/32
s 1
f 3/17/33 4/6/34 41/49/35 42/50/36
f 4/6/34 8/19/37 48/56/38 41/49/35
f 8/19/37 7/4/39 47/55/40 48/56/38
f 7/4/39 16/24/41 46/54/42 47/55/40
f 16/24/41 15/15/43 45/53/44 46/54/42
f 15/15/43 12/21/45 44/52/46 45/53/44
f 12/21/45 11/5/47 43/51/48 44/52/46
f 11/5/47 3/17/33 42/50/36 43/51/48
s 2
f 10/1/49 9/2/50 39/47/51 40/48/52
f 9/2/50 14/3/53 38/46/54 39/47/51
f 14/3/53 13/11/55 37/45/56 38/46/54
f 13/11/55 6/18/57 36/44/58 37/45/56
f 6/18/57 5/7/59 35/43/60 36/44/58
f 5/7/59 2/16/61 34/42/62 35/43/60
f 2/16/61 1/9/63 33/41/64 34/42/62
f 1/9/63 10/1/49 40/48/52 33/41/64
s off
f 18/25/65 17/26/66 31/39/67 32/40/68
f 17/26/69 19/27/70 30/38/71 31/39/72
f 19/27/73 20/28/74 29/37/75 30/38/76
f 20/28/77 21/29/78 28/36/79 29/37/80
f 21/29/81 22/30/82 27/35/83 28/36/84
f 22/30/85 23/31/86 25/34/87 27/35/88
f 23/31/89 24/32/90 26/33/91 25/34/92
f 24/32/93 18/25/94 32/40/95 26/33/96
s 2
f 34/42/62 33/41/64 32/40/97 31/39/98
f 35/43/60 34/42/62 31/39/98 30/38/99
f 36/44/58 35/43/60 30/38/99 29/37/100
f 37/45/56 36/44/58 29/37/100 28/36/101
f 38/46/54 37/45/56 28/36/101 27/35/102
f 39/47/51 38/46/54 27/35/102 25/34/103
f 40/48/52 39/47/51 25/34/103 26/33/104
f 33/41/64 40/48/52 26/33/104 32/40/97
s 1
f 42/50/36 41/49/35 17/26/105 18/25/106
f 43/51/48 42/50/36 18/25/106 24/32/107
f 44/52/46 43/51/48 24/32/107 23/31/108
f 45/53/44 44/52/46 23/31/108 22/30/109
f 46/54/42 45/53/44 22/30/109 21/29/110
f 47/55/40 46/54/42 21/29/110 20/28/111
f 48/56/38 47/55/40 20/28/111 19/27/112
f 41/49/35 48/56/38 19/27/112 17/26/105
